<?xml version="1.0" encoding="UTF-8"?>
<svg width="80px" height="105px" viewBox="0 0 80 105" version="1.1" xmlns="http://www.w3.org/2000/svg" xmlns:xlink="http://www.w3.org/1999/xlink">
    <title>标签3</title>
    <g id="页面-1" stroke="none" stroke-width="1" fill="none" fill-rule="evenodd">
        <g id="标签设置-2" transform="translate(-1340.000000, -492.000000)">
            <g id="通用信息" transform="translate(1140.000000, 149.000000)">
                <g id="标签样式" transform="translate(20.000000, 315.000000)">
                    <g id="标签3" transform="translate(180.000000, 28.000000)">
                        <rect id="矩形" stroke="#DEE3EB" fill="#FFFFFF" x="0.5" y="0.5" width="79" height="104"></rect>
                        <path d="M76.5,3.5 L76.5,72.5 L3.5,72.5 L3.5,3.5 L76.5,3.5 Z" id="矩形" stroke="#DEE3EB" fill="#F8F9FB"></path>
                        <g id="衣服" opacity="0.599934896" transform="translate(16.000000, 18.000000)" stroke="#DEE3EB" stroke-linecap="round" stroke-linejoin="round" stroke-width="0.8">
                            <path d="M14.7377049,-7.13207271e-13 C16.7363934,0.953346856 19.852459,1.56862745 23.3934426,1.56862745 C26.9344262,1.56862745 30.0465574,0.953346856 32.0491803,-7.13207271e-13" id="路径"></path>
                            <path d="M44.4908655,15.4094103 L30.1908515,27.4887836 C29.8867787,27.7478705 29.812781,28.1867173 30.0151952,28.5305202 L31.9274528,31.7551324 C32.1571494,32.1318903 32.6413204,32.2659368 33.0332887,32.0612916 L46.3671934,25.0315576 C47.3710955,24.5018567 47.9992148,23.4632901 48,22.3317898 L48,13.7235465 C48.0009394,12.9103902 47.6762028,12.1304433 47.0977637,11.5565753 L37.009507,1.56862745" id="路径"></path>
                            <line x1="36.9836066" y1="16.4705882" x2="40" y2="19" id="路径"></line>
                            <line x1="33" y1="25" x2="36.1967213" y2="29.8039216" id="路径"></line>
                            <path d="M3.52199401,15.4095461 L17.8094035,27.4890379 C18.1132082,27.7481273 18.1871407,28.1869784 17.9849049,28.5307847 L16.0743328,31.7554285 C15.8463418,32.1316422 15.3638956,32.2658147 14.9734604,32.0615907 L1.63136529,25.0317877 C0.628348094,24.5020817 0.000782424183,23.4635048 0,22.3319935 L0,13.7236657 C0.00327576708,12.9082023 0.333607121,12.1279205 0.917393683,11.5566733 L10,2" id="路径"></path>
                            <line x1="10.2295082" y1="16.4705882" x2="8" y2="19" id="路径"></line>
                            <line x1="15" y1="25" x2="11.8032787" y2="29.8039216" id="路径"></line>
                            <polyline id="路径" points="36.9836066 21.1764706 36.9836066 1.3982251 32.2622951 0"></polyline>
                            <polyline id="路径" points="10.2295082 21.1764706 10.2295082 1.3982251 14.9508197 0"></polyline>
                            <path d="M11.0163934,29.8039216 L11.0163934,35.7236127 C11.0163934,36.3527382 11.5490743,36.8627451 12.2061695,36.8627451 L36.5807157,36.8627451 C37.2378109,36.8627451 37.7704918,36.3527382 37.7704918,35.7236127 L37.7704918,29.8039216" id="路径"></path>
                            <polyline id="路径" points="36.1967213 36.8627451 36.1967213 40 11.8032787 40 11.8032787 36.8627451"></polyline>
                            <line x1="14.9508197" y1="0" x2="23.6065574" y2="11.7647059" id="路径"></line>
                            <line x1="33" y1="0" x2="24.3934426" y2="11.7647059" id="路径"></line>
                            <line x1="16.5245902" y1="6.2745098" x2="19.6721311" y2="9.41176471" id="路径"></line>
                            <line x1="15.7377049" y1="3.92156863" x2="16.5245902" y2="4.70588235" id="路径"></line>
                            <line x1="12.5901639" y1="0.784313725" x2="14.1639344" y2="3.1372549" id="路径"></line>
                            <line x1="31.4754098" y1="5.49019608" x2="27.5409836" y2="10.9803922" id="路径"></line>
                            <line x1="34.6229508" y1="1.56862745" x2="33.8360656" y2="3.1372549" id="路径"></line>
                        </g>
                        <g id="文案" transform="translate(11.000000, 79.000000)" fill="#DEE3EB">
                            <rect id="矩形" x="0" y="0" width="58" height="6"></rect>
                            <g id="编组" transform="translate(9.000000, 10.000000)">
                                <rect id="矩形备份-3" x="0" y="0" width="18" height="8"></rect>
                                <rect id="矩形备份-4" x="22" y="1" width="18" height="6"></rect>
                            </g>
                        </g>
                        <polygon id="矩形" fill="#9B3C44" points="9 3 23 3 23 16.8125 16 20 9 16.8125"></polygon>
                    </g>
                </g>
            </g>
        </g>
    </g>
</svg>