<?xml version="1.0" encoding="UTF-8"?>
<svg width="34px" height="39px" viewBox="0 0 34 39" version="1.1" xmlns="http://www.w3.org/2000/svg" xmlns:xlink="http://www.w3.org/1999/xlink">
    <!-- Generator: Sketch 56 (81588) - https://sketch.com -->
    <title>Group 5</title>
    <desc>Created with Sketch.</desc>
    <g id="Page-1" stroke="none" stroke-width="1" fill="none" fill-rule="evenodd">
        <g id="icon-copy" transform="translate(-1271.000000, -468.000000)" fill="#848FB5">
            <g id="Group-5" transform="translate(1271.000000, 468.000000)">
                <g id="Group">
                    <path d="M26,7.10425799 L21.0575099,2.0625 L4,2.0625 C2.8954305,2.0625 2,2.9859127 2,4.125 L2,28.875 C2,30.0140873 2.8954305,30.9375 4,30.9375 L24,30.9375 C25.1045695,30.9375 26,30.0140873 26,28.875 L26,7.10425799 Z M4,0 L21.8795674,0 L28,6.24335899 L28,28.875 C28,31.1531746 26.209139,33 24,33 L4,33 C1.790861,33 0,31.1531746 0,28.875 L0,4.125 C0,1.84682541 1.790861,0 4,0 Z" id="合并形状-copy" fill-rule="nonzero"></path>
                    <path d="M6,35.1762695 L6,36 C6,37.6568542 7.34314575,39 9,39 L31,39 C32.6568542,39 34,37.6568542 34,36 L34,10 C34,8.34314575 32.6568542,7 31,7 L30.3994141,7 C29.8471293,7 29.3994141,7.44771525 29.3994141,8 C29.3994141,8.55228475 29.8471293,9 30.3994141,9 L31,9 C31.5522847,9 32,9.44771525 32,10 L32,36 C32,36.5522847 31.5522847,37 31,37 L9,37 C8.44771525,37 8,36.5522847 8,36 L8,35.1762695 C8,34.6239848 7.55228475,34.1762695 7,34.1762695 C6.44771525,34.1762695 6,34.6239848 6,35.1762695 Z" id="Path-3" fill-rule="nonzero"></path>
                    <rect id="矩形" x="20" y="1" width="2" height="7"></rect>
                    <rect id="矩形" x="20" y="6" width="7" height="2"></rect>
                    <rect id="Rectangle-20" x="6" y="10" width="10" height="2"></rect>
                    <rect id="Rectangle-20-Copy" x="6" y="16" width="16" height="2"></rect>
                    <rect id="Rectangle-20-Copy-2" x="6" y="22" width="8" height="2"></rect>
                </g>
            </g>
        </g>
    </g>
</svg>