<svg xmlns="http://www.w3.org/2000/svg" width="56" height="35" viewBox="0 0 56 35" fill="none">
  <path
    fill-rule="evenodd"
    clip-rule="evenodd"
    d="M3.17921 20.0064C3.67143 22.6546 4.75005 25.162 6.3375 27.3483C10.9493 33.7237 17.9002 34.3486 20.4955 34.3439C21.0886 34.3439 21.4444 34.3063 21.4444 34.3063C20.1669 34.4899 18.8779 34.5841 17.587 34.5882C8.93755 34.5882 4.51555 29.9934 2.29506 25.9717C0.157171 22.1105 -0.515968 17.6196 0.397202 13.31C2.83595 1.98732 15.4282 0 15.4282 0C7.76088 2.68268 4.67213 7.69566 3.49072 12.0321C2.79337 14.6348 2.68698 17.3581 3.17921 20.0064ZM30.2885 9.08162L34.6393 8.06682L34.7081 8.11333C35.1961 8.44288 35.7163 8.79424 36.2193 9.17559L37.1966 9.91792L34.2929 16.8901C34.2929 16.8901 45.6421 13.4275 50.6952 15.5934C51.4543 15.9328 52.0489 16.5533 52.3514 17.3218C52.6539 18.0904 52.6401 18.9457 52.3131 19.7043C51.7627 20.9963 50.605 22.7018 48.1663 24.3367C46.9203 24.0614 45.6471 23.9259 44.3705 23.9327C43.1082 23.9393 41.8484 24.0461 40.6033 24.2522C42.1928 23.3125 43.4358 22.2319 44.0005 20.9634C44.0893 20.7605 44.1067 20.534 44.0499 20.3202C43.9931 20.1063 43.8654 19.9175 43.6873 19.7842C42.7384 19.0888 40.1858 18.3747 33.2871 20.8037C31.2889 21.4836 29.4448 22.5451 27.8592 23.928C26.7965 24.8452 25.9122 25.947 25.2496 27.1791L28.5377 19.8969L22.0518 21.6259L19.205 28.7108C17.7652 28.2076 16.493 27.3218 15.5279 26.1502L20.8751 14.3061L18.0283 13.747L26.061 11.8677L23.4846 18.0693L30.1271 16.3028L33.1352 9.64071L30.2885 9.08162ZM8.39667 6.30969C6.91257 8.13454 5.81635 10.2377 5.17385 12.4926C4.53135 14.7476 4.35584 17.1079 4.65789 19.4318C5.26046 24.0548 7.84155 29.8571 16.3202 32.8217C16.3202 32.8217 4.14547 27.1557 7.5711 13.357C7.5711 13.357 10.6836 1.37657 23.5653 1.37657C24.9336 1.38096 26.2989 1.50356 27.6457 1.74302C25.469 1.05607 23.1976 0.708938 20.913 0.714108C16.9845 0.714108 12.069 1.8182 8.39667 6.30969ZM8.88062 17.7686C9.21275 8.01515 16.7615 4.67002 16.7615 4.67002C19.2374 3.4601 21.9529 2.80713 24.7135 2.75785C26.8293 2.77821 28.9177 3.23393 30.8461 4.09611C32.7746 4.95829 34.5009 6.20808 35.9156 7.76613C36.1714 8.03675 36.4107 8.32229 36.632 8.62121C36.2714 8.34401 35.9108 8.09033 35.5597 7.84602C31.968 5.37476 28.6468 4.48208 25.8 4.48208C18.5075 4.48208 13.9716 10.2468 13.9716 10.2468C6.78823 18.9714 13.0227 28.396 13.0227 28.396C10.4114 25.453 8.94306 21.6857 8.88062 17.7686ZM55.5489 30.8719C54.7619 29.2879 53.6004 27.9154 52.1631 26.8709C50.7259 25.8264 49.0553 25.1408 47.2932 24.8723C46.3234 24.7047 45.3407 24.6214 44.3563 24.6233C42.2066 24.6546 40.0693 24.9513 37.9937 25.5066C36.3786 25.9242 34.7935 26.4485 33.2491 27.0758C32.5754 27.3436 32.0155 27.5926 31.6027 27.7852C30.8578 28.1235 30.0986 28.4383 29.3253 28.7249C28.6895 28.9551 28.0395 29.1618 27.38 29.3356C25.882 29.7558 24.3345 29.9786 22.7777 29.9981C21.4842 30.0143 20.1984 29.7994 18.9819 29.3638C18.1296 29.0569 17.3295 28.6228 16.6096 28.0765C16.2528 27.8054 15.9166 27.5086 15.6038 27.1885L15.3001 26.8644C12.515 23.7448 12.2066 19.4177 12.2066 19.4177C11.9845 21.6392 12.3548 23.8796 13.2806 25.9152C14.2064 27.9507 15.6553 29.71 17.4827 31.0176C19.295 32.2468 21.455 32.8737 23.6507 32.8076C28.3337 32.8076 32.6987 30.5525 32.6987 30.5525C38.1124 27.7758 42.4252 26.8362 45.7844 26.8362C52.7021 26.8315 55.5489 30.8719 55.5489 30.8719ZM35.0141 30.8719C35.0141 30.8719 40.0671 28.3161 45.5425 28.3161C49.0535 28.3161 52.7353 29.3638 55.3734 32.7982C51.4572 30.7973 47.107 29.7731 42.7004 29.8148C40.1014 29.8153 37.5149 30.1711 35.0141 30.8719Z"
    fill="#22AC35"
  />
</svg>
