<?xml version="1.0" standalone="no"?><!DOCTYPE svg PUBLIC "-//W3C//DTD SVG 1.1//EN" "http://www.w3.org/Graphics/SVG/1.1/DTD/svg11.dtd"><svg t="1517637647611" class="icon" style="" viewBox="0 0 1024 1024" version="1.1" xmlns="http://www.w3.org/2000/svg" p-id="2907" xmlns:xlink="http://www.w3.org/1999/xlink" width="200" height="200"><defs><style type="text/css"></style></defs><path d="M103.694175 315.927369l34.356482 0c-0.369414 0-4.185322 4.581342-4.185322 6.708795l0 522.069333c0 18.872836 18.901489 31.428803 37.775348 31.428803l719.945029 0c18.872836 0 40.564881-12.555967 40.564881-31.428803L932.150594 322.635141c0-2.127454-6.605442-6.708795-6.974855-6.708795l0.765433 0c18.874883 0 34.218336-14.839986 34.218336-33.712823l0-101.256148c0-18.86772-15.343453-33.090653-34.218336-33.090653L103.694175 147.866722c-18.87386 0-39.853683 14.222933-39.853683 33.090653l0 101.256148C63.839469 301.087383 84.820316 315.927369 103.694175 315.927369zM890.133641 841.913918c0 3.418866-2.77623 6.208399-6.209422 6.208399L168.083671 848.122317c-3.432169 0-6.209422-2.790556-6.209422-6.208399l0-519.77815c0-3.432169 2.77623-6.208399 6.209422-6.208399l715.840548 0c3.433192 0 6.209422 2.77623 6.209422 6.208399L890.133641 841.913918zM91.849406 180.957375c0-3.412726 8.42488-5.080715 11.843746-5.080715l822.245973 0c3.419889 0 6.209422 1.667989 6.209422 5.080715l0 101.256148c0 3.411703-2.790556 5.702885-6.209422 5.702885l-34.354436 0L171.63966 287.916409l-67.946508 0c-3.418866 0-11.843746-2.291183-11.843746-5.702885L91.849406 180.957375zM343.939865 441.972087c0-7.740288 6.263657-14.004969 14.004969-14.004969l336.12027 0c7.740288 0 14.004969 6.263657 14.004969 14.004969 0 7.735172-6.263657 14.005992-14.004969 14.005992L357.94381 455.978079C350.203522 455.977056 343.939865 449.706235 343.939865 441.972087z" p-id="2908"></path></svg>