<?xml version="1.0" encoding="UTF-8"?>
<svg width="223px" height="130px" viewBox="0 0 223 130" version="1.1" xmlns="http://www.w3.org/2000/svg" xmlns:xlink="http://www.w3.org/1999/xlink">
    <title>优惠券</title>
    <defs>
        <rect id="path-1" x="0" y="0" width="223" height="130"></rect>
        <radialGradient cx="50%" cy="48.0172526%" fx="50%" fy="48.0172526%" r="59.8401628%" id="radialGradient-3">
            <stop stop-color="#FFE090" offset="0%"></stop>
            <stop stop-color="#FFEBC4" stop-opacity="0" offset="81.3747408%"></stop>
            <stop stop-color="#FFF6D6" stop-opacity="0" offset="100%"></stop>
            <stop stop-color="#FFFFFF" stop-opacity="0" offset="100%"></stop>
        </radialGradient>
        <linearGradient x1="50%" y1="0%" x2="50%" y2="100%" id="linearGradient-4">
            <stop stop-color="#FFEBB0" offset="0%"></stop>
            <stop stop-color="#FFE889" offset="100%"></stop>
        </linearGradient>
        <linearGradient x1="50%" y1="0%" x2="50%" y2="100%" id="linearGradient-5">
            <stop stop-color="#FFEBB0" offset="0%"></stop>
            <stop stop-color="#FFE889" offset="100%"></stop>
        </linearGradient>
        <filter x="-12.9%" y="-20.0%" width="125.8%" height="140.0%" filterUnits="objectBoundingBox" id="filter-6">
            <feGaussianBlur stdDeviation="4" in="SourceGraphic"></feGaussianBlur>
        </filter>
        <linearGradient x1="50%" y1="0%" x2="50%" y2="100%" id="linearGradient-7">
            <stop stop-color="#FFEBB0" offset="0%"></stop>
            <stop stop-color="#FFE889" offset="100%"></stop>
        </linearGradient>
        <linearGradient x1="50%" y1="0%" x2="50%" y2="100%" id="linearGradient-8">
            <stop stop-color="#FFE3C0" offset="0%"></stop>
            <stop stop-color="#FFD88F" offset="100%"></stop>
        </linearGradient>
        <path d="M95,65.7499719 C95,72.1251378 89.962655,77 83.375,77 L13.625,77 C7.037345,77 2,72.1251378 2,65.7499719 L2,54.4999437 C5.4875,53.7497919 8.587655,50.7500844 8.587655,46.999775 C8.587655,43.2499156 5.874845,40.2497581 2,39.5000563 L2,28.2500281 C2,21.8748622 7.037345,17 13.625,17 L83.375,17 C89.962655,17 95,21.8748622 95,28.2500281 L95,39.8749072 C91.899845,40.99991 89.962655,43.6247666 89.962655,46.999775 C89.962655,50.3747834 92.287655,53.00009 95,54.1250928 L95,65.7499719 Z" id="path-9"></path>
    </defs>
    <g id="优惠码活动" stroke="none" stroke-width="1" fill="none" fill-rule="evenodd">
        <g id="活动落地页-优惠码活动-满件打折-移动端-领取成功" transform="translate(-90.000000, -747.000000)">
            <g id="优惠券" transform="translate(90.000000, 747.000000)">
                <g id="放射线">
                    <mask id="mask-2" fill="white">
                        <use xlink:href="#path-1"></use>
                    </mask>
                    <g id="蒙版"></g>
                    <path d="M81,-101 L75.464,41.083 L125.940074,-92.0114634 L144.350171,-84.1968408 L82.199,47.694 L181.308658,-59.4507935 L195.450793,-45.3086579 L91.066,51.246 L220.872369,-7.17537172 L228.364501,11.3683054 L91.153,60.682 L237,55 L237,75 L94.916,69.464 L228.011463,119.940074 L220.196841,138.350171 L88.305,76.199 L195.450793,175.308658 L181.308658,189.450793 L84.753,85.066 L143.175372,214.872369 L124.631695,222.364501 L75.317,85.153 L81,231 L61,231 L66.535,88.915 L16.0599262,222.011463 L-2.35017091,214.196841 L59.8,82.305 L-39.3086579,189.450793 L-53.4507935,175.308658 L53.694,76.199 L-78.1968408,138.350171 L-86.0114634,119.940074 L47.086,69.463 L-95,75 L-95,55 L47.083,60.535 L-86.0114634,10.0599262 L-78.1968408,-8.35017091 L53.694,53.8 L-53.4507935,-45.3086579 L-39.3086579,-59.4507935 L57.246,44.933 L-1.17537172,-84.8723693 L17.3683054,-92.3645011 L66.682,44.846 L61,-101 L81,-101 Z M64.235,54.794 L60.871,58.158 L59,62.565 L59,67.434 L60.871,71.841 L64.158,75.128 L68.568,77 L73.322,77 L77.764,75.205 L81.128,71.841 L83,67.431 L83,62.677 L81.205,58.235 L77.841,54.871 L73.434,53 L68.675,53 L64.235,54.794 Z" id="形状结合" fill="url(#radialGradient-3)" opacity="0.29594494" mask="url(#mask-2)"></path>
                </g>
                <g transform="translate(30.000000, 22.000000)">
                    <path d="M83.6132999,50.8581054 C83.6132999,56.2769964 79.3884299,60.4206293 73.8632999,60.4206293 L15.3632999,60.4206293 C9.83816992,60.4206293 5.61329992,56.2769964 5.61329992,50.8581054 L5.61329992,41.2955815 C8.53829992,40.6579524 11.1384299,38.108201 11.1384299,34.920438 C11.1384299,31.7330576 8.86316992,29.1829237 5.61329992,28.5456771 L5.61329992,18.9831532 C5.61329992,13.5642621 9.83816992,9.42062928 15.3632999,9.42062928 L73.8632999,9.42062928 C79.3884299,9.42062928 83.6132999,13.5642621 83.6132999,18.9831532 L83.6132999,28.8643004 C81.0131699,29.8205528 79.3884299,32.0516809 79.3884299,34.920438 C79.3884299,37.7891952 81.3384299,40.0207058 83.6132999,40.9769582 L83.6132999,50.8581054 Z" id="路径" fill="url(#linearGradient-4)" opacity="0.600000024" transform="translate(44.613300, 34.920629) rotate(-15.000000) translate(-44.613300, -34.920629) "></path>
                    <path d="M88.3908615,18.3725651 L89.7367421,29.3338826 C86.9884625,30.7481078 85.4936555,33.4439873 85.8844001,36.6263464 C85.909158,36.8279834 85.9422341,37.0257184 85.9831487,37.2194275 L72.5727843,44.8799812 L74.227821,66.772 L18.4773564,73.617136 C12.3606469,74.3681735 7.11902559,70.3458657 6.38093517,64.3346016 L5.07845331,53.7267381 C8.22978564,52.621807 10.7610196,49.4398875 10.3268243,45.9036501 C9.89268102,42.3678371 7.02646146,39.8482108 3.34182819,39.5830615 L2.03934633,28.975198 C1.3012559,22.9639339 5.41409428,17.7930429 11.5308039,17.0420054 L76.2944403,9.0900307 C82.4111498,8.3389932 87.6527711,12.361301 88.3908615,18.3725651 Z" id="形状结合" fill="url(#linearGradient-5)" opacity="0.600000024"></path>
                    <path d="M94.5,65.5692929 C94.5,71.9444588 89.462655,76.819321 82.875,76.819321 L13.125,76.819321 C6.537345,76.819321 1.5,71.9444588 1.5,65.5692929 L1.5,54.3192647 C4.9875,53.5691129 8.087655,50.5694054 8.087655,46.819096 C8.087655,43.0692366 5.374845,40.0690791 1.5,39.3193772 L1.5,28.0693491 C1.5,21.6941832 6.537345,16.819321 13.125,16.819321 L82.875,16.819321 C89.462655,16.819321 94.5,21.6941832 94.5,28.0693491 L94.5,39.6942282 C91.399845,40.819231 89.462655,43.4440875 89.462655,46.819096 C89.462655,50.1941044 91.787655,52.819411 94.5,53.9444138 L94.5,65.5692929 Z" id="路径" fill="#E50928" filter="url(#filter-6)"></path>
                    <g id="路径">
                        <use fill="url(#linearGradient-7)" xlink:href="#path-9"></use>
                        <use fill="url(#linearGradient-8)" xlink:href="#path-9"></use>
                    </g>
                    <text id="$" font-family="Lato-Bold, Lato" font-size="44" font-weight="bold" fill="#FB245B">
                        <tspan x="37" y="64">$</tspan>
                    </text>
                </g>
            </g>
        </g>
    </g>
</svg>