<!DOCTYPE svg PUBLIC "-//W3C//DTD SVG 20010904//EN" "http://www.w3.org/TR/2001/REC-SVG-20010904/DTD/svg10.dtd">
<svg version="1.0" xmlns="http://www.w3.org/2000/svg" width="724px" height="707px" viewBox="0 0 7240 7070" preserveAspectRatio="xMidYMid meet">
<g id="layer1" fill="#ffffff" stroke="none">
 <path d="M195 6900 c-3 -5 358 -337 802 -737 445 -400 1280 -1153 1856 -1672 1019 -918 1048 -945 1030 -963 -10 -10 -844 -760 -1853 -1666 -1009 -906 -1835 -1652 -1835 -1657 0 -7 559 -11 1558 -13 l1557 -2 1878 1673 c1032 920 1877 1679 1877 1687 0 8 -844 767 -1875 1686 l-1875 1672 -1557 1 c-975 1 -1559 -3 -1563 -9z"/>
 </g>

</svg>