<?xml version="1.0" standalone="no"?><!DOCTYPE svg PUBLIC "-//W3C//DTD SVG 1.1//EN" "http://www.w3.org/Graphics/SVG/1.1/DTD/svg11.dtd"><svg t="1517637742054" class="icon" style="" viewBox="0 0 1024 1024" version="1.1" xmlns="http://www.w3.org/2000/svg" p-id="7614" xmlns:xlink="http://www.w3.org/1999/xlink" width="200" height="200"><defs><style type="text/css"></style></defs><path d="M512 64C264.6 64 64 264.6 64 512s200.6 448 448 448 448-200.6 448-448S759.4 64 512 64z m0 840c-216.1 0-392-175.9-392-392s175.9-392 392-392 392 175.9 392 392-175.9 392-392 392z" p-id="7615"></path><path d="M657.6 254.2L512 448.1 366.4 254.2c-9.2-12.3-26.7-14.9-39.2-5.5-12.4 9.3-14.8 26.8-5.5 39.2L477 494.7H372c-15.5 0-28 12.5-28 28s12.5 28 28 28h112v56H372c-15.5 0-28 12.5-28 28s12.5 28 28 28h112v84h0.1c0 0.2-0.1 0.5-0.1 0.7 0 15.5 12.5 28 28 28s28-12.5 28-28c0-0.2-0.1-0.5-0.1-0.7h0.1v-84h112c15.5 0 28-12.5 28-28s-12.5-28-28-28H540v-56h112c15.5 0 28-12.5 28-28s-12.5-28-28-28H547l155.4-206.8c9.3-12.4 6.8-29.9-5.5-39.2-12.5-9.4-30-6.7-39.3 5.5z" p-id="7616"></path></svg>