<?xml version="1.0" standalone="no"?><!DOCTYPE svg PUBLIC "-//W3C//DTD SVG 1.1//EN" "http://www.w3.org/Graphics/SVG/1.1/DTD/svg11.dtd"><svg t="1517637540119" class="icon" style="" viewBox="0 0 1024 1024" version="1.1" xmlns="http://www.w3.org/2000/svg" p-id="2214" xmlns:xlink="http://www.w3.org/1999/xlink" width="200" height="200"><defs><style type="text/css"></style></defs><path d="M780.190135 335.820442 611.66593 335.820442l0-62.753229c0-29.514197-14.223956-52.292993-40.964994-52.292993L112.452141 220.774219c-26.736944 0-48.489364 24.01188-48.489364 53.525054L63.962777 671.291936c0 29.510104 15.392572 51.500954 42.130539 51.500954l115.860774 0c0 0 14.32424 104.588033 115.859751 104.588033 109.123326 0 126.392642-98.373495 126.392642-104.588033l105.328907 0c0.864694 0-0.858554 0.051165 0 0l0 0 63.196321 0c0 0 10.532891 0.010233 10.532891 0 6.954389 69.25634 55.202253 105.062847 126.392642 104.588033 126.21868-0.840134 115.859751-115.045199 115.859751-115.045199l42.131563 0c27.353998 0 31.598672-5.859451 31.598672-31.376615l0-167.341263L780.190135 335.820442zM337.813842 796.004309c-40.177048-0.37146-84.261079-36.132942-84.261079-83.668585 0-50.356898 37.193087-90.766236 84.261079-94.129844 50.325176-3.594875 95.26776 42.433438 95.26776 92.790336C430.714695 773.679861 380.405893 796.47503 337.813842 796.004309zM580.068282 691.417299 464.206484 691.417299c-14.541181-60.242036-61.632709-104.588033-126.392642-104.588033-64.765049 0-101.316523 44.344974-115.859751 104.588033L95.561449 691.417299 95.561449 252.148787l484.506832 0L580.068282 691.417299zM769.658268 796.004309c-50.456159 0-94.15952-34.652218-94.15952-85.009116 0-50.356898 45.86663-92.184539 83.626629-92.790336 66.523089-1.067308 94.794993 43.772946 94.794993 94.129844C853.919347 762.692622 820.11238 796.004309 769.658268 796.004309L769.658268 796.004309zM885.518019 680.95911c-1.693572-44.270273-46.402843-96.207156-126.392642-94.129844-66.443271 1.725294-115.860774 52.752458-115.860774 104.588033l-31.598672 0c0.316202-2.465145 0-18.352997 0-20.916379L611.66593 367.196033l157.991314 0 157.991314 156.880003 0 156.88205L885.518019 680.958086z" p-id="2215"></path></svg>