<?xml version="1.0" standalone="no"?><svg class="icon" viewBox="0 0 1024 1024" xmlns="http://www.w3.org/2000/svg" width="200" height="200"><defs><style/></defs><path d="M113.778 341.333h796.444a56.889 56.889 0 0156.89 56.89v512a56.889 56.889 0 01-56.89 56.888H113.778a56.889 56.889 0 01-56.89-56.889v-512a56.889 56.889 0 0156.89-56.889zM910.222 568.89V398.222H113.778v371.342L512 597.334 625.778 711.11l284.444-142.22zm-796.444 256v86.898h796.444v-286.01L605.298 768.769 498.26 654.222 113.778 824.89z"/><path d="M739.556 469.333a42.667 42.667 0 1085.333 0 42.667 42.667 0 10-85.333 0zM170.667 199.111h682.666a28.444 28.444 0 010 56.889H170.667a28.444 28.444 0 110-56.889zM284.444 56.89h455.112a28.444 28.444 0 010 56.889H284.444a28.444 28.444 0 110-56.89z"/></svg>