<svg xmlns="http://www.w3.org/2000/svg" width="16" height="16" viewBox="0 0 16 16" fill="none">
  <path d="M7.92894 1.10229C4.08894 1.10229 0.995605 4.19563 0.995605 8.03563C0.995605 11.8756 4.12449 14.969 7.92894 14.969C11.7689 14.969 14.8623 11.8756 14.8623 8.03563C14.8623 4.23118 11.7689 1.10229 7.92894 1.10229ZM11.8045 8.56896H8.46227V11.9112C8.46227 12.1956 8.21338 12.4445 7.92894 12.4445C7.64449 12.4445 7.39561 12.1956 7.39561 11.9112V8.56896H4.05338C3.76894 8.56896 3.52005 8.32007 3.52005 8.03563C3.52005 7.75118 3.76894 7.50229 4.05338 7.50229H7.39561V4.16007C7.39561 3.87563 7.64449 3.62674 7.92894 3.62674C8.21338 3.62674 8.46227 3.87563 8.46227 4.16007V7.50229H11.8045C12.0889 7.50229 12.3378 7.75118 12.3378 8.03563C12.3378 8.32007 12.1245 8.56896 11.8045 8.56896Z" />
  </svg>