<svg xmlns="http://www.w3.org/2000/svg" width="20" height="20" viewBox="0 0 20 20">
  <g clip-path="url(#clip0_17_3450)">
    <path
      d="M16.5119 5C14.3633 3.06563 12.5213 2 10 2C5.58128 2 2 5.58128 2 10C2 14.4187 5.58128 18 10 18C10.5523 18 11 18.4477 11 19C11 19.5523 10.5523 20 10 20C4.47672 20 0 15.5233 0 10C0 4.47672 4.47672 0 10 0C13.2969 0 15.6436 1.49636 18 3.64723V1C18 0.447715 18.4477 0 19 0C19.5523 0 20 0.447715 20 1V5.99983C20 6.13542 19.973 6.26488 19.9241 6.38278C19.8757 6.49986 19.804 6.6096 19.7092 6.70498C19.7078 6.7064 19.7064 6.70781 19.705 6.70922C19.6096 6.80405 19.4999 6.87568 19.3828 6.92412C19.2649 6.97301 19.1356 7 19 7H14C13.4477 7 13 6.55228 13 6C13 5.44772 13.4477 5 14 5H16.5119Z"
    />
  </g>
  <defs>
    <clipPath id="clip0_17_3450">
      <rect width="20" height="20" fill="white" />
    </clipPath>
  </defs>
</svg>
