<svg width="38" height="24" fill="none" xmlns="http://www.w3.org/2000/svg"><g clip-path="url(#clip0_3803_57605)" fill="#0071CE"><path d="M34.822 21.659l-1.686-1.88-1.75 1.88h-10.83v-8.755H17.12l4.28-9.791h4.15l1.492 3.372V3.113h5.188l.907 2.529.908-2.53H38v-1.49C38 .712 37.287 0 36.379 0H1.62C.713 0 0 .713 0 1.621v21.075c0 .908.713 1.621 1.621 1.621H36.38c.908 0 1.621-.713 1.621-1.62v-1.038h-3.178z"/><path d="M35.276 20.621H38l-3.567-3.826L38 13.035h-2.659l-2.27 2.463-2.204-2.464h-2.724l3.632 3.826-3.632 3.761h2.659l2.27-2.464 2.204 2.464z"/><path d="M23.799 18.87v-1.167h4.28v-1.75h-4.28v-1.168h4.344v-1.75h-6.42v7.586h6.42v-1.75H23.8zm12.191-6.938h1.945V4.28l-3.113.065-1.686 4.734-1.75-4.734h-3.243v7.587h2.075V6.614l1.946 5.318h1.816l2.01-5.318v5.318z"/><path d="M24.836 4.345h-2.659l-3.372 7.587h2.27l.649-1.492h3.501l.649 1.492h2.334l-3.372-7.587zm-2.4 4.344l1.038-2.464 1.038 2.464h-2.075zM36.12 16.6L38 18.677v-4.15L36.12 16.6z"/></g><defs><clipPath id="clip0_3803_57605"><path fill="#fff" d="M0 0h38v24H0z"/></clipPath></defs></svg>