<svg xmlns="http://www.w3.org/2000/svg" width="20" height="20" viewBox="0 0 20 20" fill="none">
  <path d="M4.74239 1H15.2576C15.8865 0.999802 16.4928 1.22871 16.9573 1.64174C17.4218 2.05477 17.7109 2.62207 17.7679 3.23218L18.9896 16.3231C19.0214 16.6628 18.9801 17.0052 18.8684 17.3284C18.7567 17.6517 18.577 17.9487 18.3409 18.2006C18.1048 18.4525 17.8174 18.6536 17.497 18.7913C17.1766 18.9289 16.8303 19 16.4801 19H3.51986C3.1697 19 2.82339 18.9289 2.503 18.7913C2.18262 18.6536 1.89521 18.4525 1.65909 18.2006C1.42297 17.9487 1.24334 17.6517 1.13164 17.3284C1.01994 17.0052 0.97864 16.6628 1.01036 16.3231L2.2321 3.23218C2.28908 2.62207 2.57822 2.05477 3.04271 1.64174C3.5072 1.22871 4.11347 0.999802 4.74239 1Z" fill="#242424"/>
  <path d="M12.9708 4.0703C12.997 3.99267 13.0389 3.92092 13.094 3.85927C13.149 3.79762 13.2162 3.7473 13.2915 3.71128C13.3668 3.67525 13.4487 3.65424 13.5325 3.64948C13.6163 3.64472 13.7001 3.6563 13.7792 3.68355C13.8583 3.7108 13.9311 3.75316 13.9931 3.80816C14.0552 3.86315 14.1053 3.92966 14.1406 4.0038C14.176 4.07793 14.1957 4.15819 14.1988 4.23986C14.2018 4.32153 14.188 4.40296 14.1583 4.47939C13.854 5.31673 13.2907 6.04162 12.546 6.5543C11.8014 7.06699 10.9119 7.34227 9.99997 7.34227C9.08807 7.34227 8.19858 7.06699 7.4539 6.5543C6.70923 6.04162 6.14596 5.31673 5.84161 4.47939C5.8119 4.40296 5.79816 4.32153 5.80119 4.23986C5.80423 4.15819 5.82399 4.07793 5.8593 4.0038C5.89461 3.92966 5.94477 3.86315 6.00683 3.80815C6.06889 3.75316 6.14161 3.7108 6.2207 3.68355C6.2998 3.6563 6.38369 3.64472 6.46744 3.64948C6.5512 3.65424 6.63313 3.67525 6.70844 3.71128C6.78375 3.7473 6.85091 3.79762 6.90598 3.85927C6.96105 3.92092 7.00293 3.99267 7.02915 4.0703C7.24651 4.66858 7.6489 5.18653 8.18092 5.55286C8.71294 5.91919 9.34845 6.11589 9.99997 6.11589C10.6515 6.11589 11.287 5.91919 11.819 5.55286C12.3511 5.18653 12.7534 4.66858 12.9708 4.0703Z" fill="white"/>
</svg>