<svg xmlns="http://www.w3.org/2000/svg" width="20" height="20" viewBox="0 0 20 20">
  <g clip-path="url(#clip0_17_3449)">
    <path
      d="M3.48808 5C5.63665 3.06563 7.4787 2 10 2C14.4187 2 18 5.58128 18 10C18 14.4187 14.4187 18 10 18C9.44771 18 9 18.4477 9 19C9 19.5523 9.44771 20 10 20C15.5233 20 20 15.5233 20 10C20 4.47672 15.5233 0 10 0C6.70313 0 4.35637 1.49636 2 3.64723V1C2 0.447715 1.55228 0 1 0C0.447715 0 0 0.447715 0 1V5.99983C0 6.13542 0.0269855 6.26488 0.0758788 6.38278C0.124319 6.49986 0.195951 6.6096 0.290776 6.70498C0.292185 6.7064 0.293599 6.70781 0.295017 6.70922C0.3904 6.80405 0.500141 6.87568 0.617216 6.92412C0.735123 6.97301 0.86441 7 1 7H6C6.55228 7 7 6.55228 7 6C7 5.44772 6.55228 5 6 5H3.48808Z"
    />
  </g>
  <defs>
    <clipPath id="clip0_17_3449">
      <rect width="20" height="20" fill="white" />
    </clipPath>
  </defs>
</svg>
