<svg class="color-body-70" xmlns="http://www.w3.org/2000/svg" width="80" height="70" fill="none"><path fill="currentColor" fill-opacity=".7" d="M41.867 16.76c.64 0 1.168.486 1.231 1.11l.007.127v17.334a1.238 1.238 0 0 1-2.47.126l-.006-.126V17.997c0-.683.554-1.238 1.238-1.238ZM55.183 17.87a1.238 1.238 0 0 0-2.47.127v17.334l.007.126a1.238 1.238 0 0 0 2.47-.126V17.997l-.007-.126ZM29.081 16.782c.63-.122 1.24.255 1.422.856l.03.123 3.37 17.333a1.238 1.238 0 0 1-2.4.596l-.03-.123-3.37-17.333a1.238 1.238 0 0 1 .978-1.452ZM65.503 17.638a1.238 1.238 0 0 1 2.4.596l-3.37 17.333-.03.123a1.238 1.238 0 0 1-2.4-.596l3.37-17.333.03-.123Z"></path><path fill="currentColor" fill-opacity=".7" fill-rule="evenodd" d="M17.622 3.07A3.601 3.601 0 0 0 14.13.355H1.865l-.68.006C.56.425.627.951.627 1.593c0 .684 0 1.238.684 1.238H14.13l.123.007c.484.052.885.413.981.9l7.424 37.368a6.136 6.136 0 0 0-3.525 5.555 6.135 6.135 0 0 0 6.136 6.136h46.229l.126-.007a1.238 1.238 0 0 0-.126-2.47h-46.23l-.194-.005a3.659 3.659 0 0 1-3.465-3.654 3.659 3.659 0 0 1 3.66-3.66h45.533a3.097 3.097 0 0 0 3.041-2.51l5.475-28.477a3.095 3.095 0 0 0-3.038-3.68H18.672l-1.009-5.078-.041-.186Zm1.736 7.74 5.715 29.714h45.73a.62.62 0 0 0 .608-.502l5.475-28.476a.619.619 0 0 0-.606-.736H19.358ZM20.643 62.074a7.57 7.57 0 0 1 7.571-7.57 7.57 7.57 0 1 1-7.57 7.57Zm12.666 0a5.094 5.094 0 1 0-10.189.002 5.094 5.094 0 0 0 10.189-.002ZM62.028 54.504a7.57 7.57 0 1 0 0 15.142 7.57 7.57 0 0 0 0-15.142Zm0 2.477a5.094 5.094 0 1 1 0 10.188 5.094 5.094 0 0 1 0-10.188Z" clip-rule="evenodd"></path></svg>