<svg xmlns="http://www.w3.org/2000/svg" width="30" height="31" viewBox="0 0 30 31" fill="none">
  <path d="M15 30.5732C23.2843 30.5732 30 23.8575 30 15.5732C30 7.28897 23.2843 0.573242 15 0.573242C6.71573 0.573242 0 7.28897 0 15.5732C0 23.8575 6.71573 30.5732 15 30.5732Z" fill="#B3B3B3" />
  <path
    d="M15 3.30051C12.5727 3.30051 10.1999 4.0203 8.18164 5.36884C6.1634 6.71739 4.59037 8.63412 3.66148 10.8767C2.73258 13.1192 2.48954 15.5869 2.96309 17.9675C3.43664 20.3482 4.6055 22.535 6.32187 24.2514C8.03824 25.9677 10.225 27.1366 12.6057 27.6102C14.9864 28.0837 17.454 27.8407 19.6966 26.9118C21.9391 25.9829 23.8559 24.4098 25.2044 22.3916C26.5529 20.3734 27.2727 18.0006 27.2727 15.5732C27.2691 12.3194 25.9749 9.1999 23.6741 6.8991C21.3733 4.5983 18.2538 3.30412 15 3.30051ZM15 0.573242C17.9667 0.573242 20.8668 1.45298 23.3336 3.1012C25.8003 4.74942 27.7229 7.0921 28.8582 9.83299C29.9935 12.5739 30.2906 15.5899 29.7118 18.4996C29.133 21.4093 27.7044 24.0821 25.6066 26.1798C23.5088 28.2776 20.8361 29.7062 17.9264 30.285C15.0166 30.8638 12.0006 30.5667 9.25975 29.4314C6.51886 28.2961 4.17618 26.3735 2.52796 23.9068C0.879735 21.4401 0 18.54 0 15.5732C0 11.595 1.58035 7.77969 4.3934 4.96664C7.20644 2.15359 11.0218 0.573242 15 0.573242V0.573242Z"
    fill="#B3B3B3"
  />
  <path
    d="M19.8209 18.4677L12.1071 10.7538C11.5745 10.2213 10.7111 10.2213 10.1786 10.7538C9.64605 11.2863 9.64605 12.1497 10.1786 12.6823L17.8925 20.3962C18.425 20.9287 19.2884 20.9287 19.8209 20.3962C20.3535 19.8636 20.3535 19.0002 19.8209 18.4677Z"
    fill="white"
  />
  <path
    d="M12.107 20.3974L19.8209 12.6835C20.3535 12.1509 20.3535 11.2875 19.8209 10.755C19.2884 10.2225 18.425 10.2225 17.8924 10.755L10.1786 18.4689C9.64602 19.0014 9.64602 19.8648 10.1786 20.3974C10.7111 20.9299 11.5745 20.9299 12.107 20.3974Z"
    fill="white"
  />
</svg>
