<svg xmlns="http://www.w3.org/2000/svg" width="18" height="18" viewBox="0 0 18 18">
  <path
    d="M15.6782 14.4866H2.32184C1.03448 14.4866 0 13.4037 0 12.0562V2.43048C0 1.08289 1.03448 0 2.32184 0H15.6782C16.9655 0 18 1.10695 18 2.43048V12.0321C18 13.3797 16.9655 14.4866 15.6782 14.4866ZM2.32184 1.22727C1.67816 1.22727 1.14943 1.78075 1.14943 2.45455V12.0562C1.14943 12.7299 1.67816 13.2834 2.32184 13.2834H15.6782C16.3218 13.2834 16.8506 12.7299 16.8506 12.0562V2.43048C16.8506 1.75668 16.3218 1.20321 15.6782 1.20321H2.32184V1.22727ZM15.0575 18H3.05747C2.55172 18 2.25287 17.4465 2.48276 16.9893L3.05747 15.8102C3.17241 15.5936 3.4023 15.4492 3.63218 15.4492H14.4598C14.7126 15.4492 14.9195 15.5936 15.0345 15.8102L15.6322 16.9893C15.8621 17.4465 15.5402 18 15.0575 18Z"
  />
</svg>
