<svg xmlns="http://www.w3.org/2000/svg" width="20" height="20" viewBox="0 0 20 20" fill="none">
  <path d="M8 3.99388C8 2.89269 8.89543 2 10 2C11.1046 2 12 2.89269 12 3.99388H16C16.5523 3.99388 17 4.44023 17 4.99082C17 5.54142 16.5523 5.98776 16 5.98776H4C3.44772 5.98776 3 5.54142 3 4.99082C3 4.44023 3.44772 3.99388 4 3.99388H8Z" fill="#5C5F62"/>
  <path d="M5 14.5076V8H7V14.5076C7 14.7829 7.22386 15.0061 7.5 15.0061H9V8H11L11 15.0061H12.5C12.7761 15.0061 13 14.7829 13 14.5076V8H15V14.5076C15 15.8841 13.8807 17 12.5 17H7.5C6.11929 17 5 15.8841 5 14.5076Z" fill="#5C5F62"/>
  </svg> 