<svg xmlns="http://www.w3.org/2000/svg" width="14" height="14" viewBox="0 0 14 14" fill="none">
<g clip-path="url(#clip0_1103_18043)">
<path d="M8.00179 10.5V5.0001C8.00179 4.35916 9.00309 4.35916 9.00309 5.0001V10.5C9.00309 11.141 8.00179 11.141 8.00179 10.5ZM4.997 10.5V5.0001C4.997 4.35916 5.99876 4.35916 5.99876 5.0001V10.5C5.99874 11.141 4.997 11.141 4.997 10.5ZM13.5103 2.50005H11.0066V1.4997C11.0066 0.671503 10.3333 0 9.51972 0H4.49632C3.66679 0 2.99395 0.671517 2.99395 1.4997V2.50005H0.490203C-0.151682 2.50005 -0.151682 3.49953 0.490203 3.49953H13.5103C14.1517 3.49953 14.1517 2.50005 13.5103 2.50005ZM3.99569 1.49969C3.99569 1.23406 4.23029 0.999468 4.4963 0.999468H9.51971C9.78575 0.999468 10.0048 1.20268 10.0048 1.49969V2.50004H3.99569V1.49969ZM10.5055 14H3.49455C2.66549 14 1.99264 13.3285 1.99264 12.5004V5.0001C1.99264 4.70309 2.22724 4.4999 2.49325 4.4999C2.75934 4.4999 2.99393 4.70309 2.99393 5.0001V12.5003C2.99393 12.7654 3.22899 13 3.49454 13H10.5055C10.7715 13 11.0066 12.7654 11.0066 12.5003V5.01559C11.0066 4.35916 12.0079 4.35916 12.0079 5.01559V12.5003C12.0079 13.3285 11.3351 14 10.5055 14Z" fill="#272636"/>
</g>
<defs>
<clipPath id="clip0_1103_18043">
<rect width="14" height="14" fill="white"/>
</clipPath>
</defs>
</svg>