<svg xmlns="http://www.w3.org/2000/svg" width="16" height="16" viewBox="0 0 16 16" fill="none">
  <path d="M13.4797 1.8128C13.5258 1.76505 13.581 1.72695 13.642 1.70075C13.703 1.67455 13.7686 1.66075 13.835 1.66018C13.9014 1.6596 13.9672 1.67225 14.0286 1.69739C14.0901 1.72253 14.1459 1.75966 14.1929 1.8066C14.2398 1.85355 14.2769 1.90938 14.3021 1.97082C14.3272 2.03227 14.3399 2.09811 14.3393 2.1645C14.3387 2.23089 14.3249 2.2965 14.2987 2.3575C14.2725 2.4185 14.2344 2.47368 14.1867 2.5198L7.11617 9.59047C7.02239 9.68424 6.89521 9.73693 6.76259 9.73693C6.62997 9.73693 6.50278 9.68424 6.409 9.59047C6.31523 9.49669 6.26254 9.3695 6.26254 9.23688C6.26254 9.10426 6.31523 8.97708 6.409 8.8833L13.4797 1.81297V1.8128ZM13.3332 6.99963C13.3332 6.86703 13.3858 6.73985 13.4796 6.64608C13.5734 6.55231 13.7006 6.49963 13.8332 6.49963C13.9658 6.49963 14.093 6.55231 14.1867 6.64608C14.2805 6.73985 14.3332 6.86703 14.3332 6.99963V12.4996C14.3332 13.5121 13.5123 14.333 12.4998 14.333H3.49984C2.48734 14.333 1.6665 13.5121 1.6665 12.4996V3.49963C1.6665 2.48713 2.48734 1.6663 3.49984 1.6663H8.83317C8.96578 1.6663 9.09296 1.71898 9.18672 1.81275C9.28049 1.90652 9.33317 2.03369 9.33317 2.1663C9.33317 2.29891 9.28049 2.42609 9.18672 2.51985C9.09296 2.61362 8.96578 2.6663 8.83317 2.6663H3.49984C3.27882 2.6663 3.06686 2.7541 2.91058 2.91038C2.7543 3.06666 2.6665 3.27862 2.6665 3.49963V12.4996C2.6665 12.7206 2.7543 12.9326 2.91058 13.0889C3.06686 13.2452 3.27882 13.333 3.49984 13.333H12.4998C12.7208 13.333 12.9328 13.2452 13.0891 13.0889C13.2454 12.9326 13.3332 12.7206 13.3332 12.4996V6.99963Z" fill="black"/>
  </svg>