<svg xmlns="http://www.w3.org/2000/svg" width="14" height="14" viewBox="0 0 14 14" fill="none">
  <path
    d="M6.99994 3.15002C9.73274 3.15002 12.0998 4.71592 13.2527 6.99967C12.1001 9.28377 9.73274 10.85 6.99994 10.85C4.26714 10.85 1.90009 9.28412 0.747192 7.00037C1.89974 4.71627 4.26714 3.15002 6.99994 3.15002ZM6.99994 4.20002C6.00205 4.19947 5.02007 4.45008 4.14449 4.92876C3.2689 5.40745 2.52788 6.0988 1.98969 6.93912L1.95119 7.00037L1.98969 7.06162C2.51652 7.88379 3.2377 8.56357 4.08954 9.04092C4.94139 9.51827 5.89768 9.7785 6.87394 9.79862L6.99994 9.80002C9.06004 9.80002 10.9304 8.74442 12.0102 7.06092L12.0487 6.99967L12.0102 6.93842C11.4834 6.11626 10.7622 5.43648 9.91034 4.95913C9.0585 4.48178 8.10221 4.22155 7.12594 4.20142L6.99994 4.20002ZM6.99994 4.72502C7.60331 4.72502 8.18197 4.96471 8.60861 5.39136C9.03526 5.818 9.27494 6.39666 9.27494 7.00002C9.27494 7.60339 9.03526 8.18205 8.60861 8.60869C8.18197 9.03534 7.60331 9.27502 6.99994 9.27502C6.39657 9.27502 5.81792 9.03534 5.39127 8.60869C4.96463 8.18205 4.72494 7.60339 4.72494 7.00002C4.72494 6.39666 4.96463 5.818 5.39127 5.39136C5.81792 4.96471 6.39657 4.72502 6.99994 4.72502ZM6.99994 5.77502C6.83907 5.77502 6.67978 5.80671 6.53116 5.86827C6.38253 5.92983 6.24749 6.02007 6.13374 6.13382C6.01998 6.24757 5.92975 6.38261 5.86819 6.53124C5.80663 6.67986 5.77494 6.83916 5.77494 7.00002C5.77494 7.16089 5.80663 7.32019 5.86819 7.46881C5.92975 7.61744 6.01998 7.75248 6.13374 7.86623C6.24749 7.97998 6.38253 8.07021 6.53116 8.13178C6.67978 8.19334 6.83907 8.22502 6.99994 8.22502C7.32483 8.22502 7.63642 8.09596 7.86615 7.86623C8.09588 7.6365 8.22494 7.32491 8.22494 7.00002C8.22494 6.67513 8.09588 6.36355 7.86615 6.13382C7.63642 5.90409 7.32483 5.77502 6.99994 5.77502Z"
    fill="#5C5F62"
  />
</svg>
