<svg xmlns="http://www.w3.org/2000/svg" width="80" height="16" viewBox="0 0 80 16" fill="none">
  <path fill-rule="evenodd" clip-rule="evenodd" d="M72 12.6332L76.94 15.5732L75.63 10.0232L80 6.29324L74.25 5.80324L72 0.573242L69.75 5.80324L64 6.29324L68.37 10.0232L67.06 15.5732L72 12.6332Z" fill="#E4E4E4"/>
  <path fill-rule="evenodd" clip-rule="evenodd" d="M64 6.29324L58.25 5.80324L56 0.573242L53.75 5.80324L48 6.29324L52.37 10.0232L51.06 15.5732L56 12.6332L60.94 15.5732L59.63 10.0232L64 6.29324Z" fill="#FF9017"/>
  <path fill-rule="evenodd" clip-rule="evenodd" d="M40 12.6332L44.94 15.5732L43.63 10.0232L48 6.29324L42.25 5.80324L40 0.573242L37.75 5.80324L32 6.29324L36.37 10.0232L35.06 15.5732L40 12.6332Z" fill="#FF9017"/>
  <path fill-rule="evenodd" clip-rule="evenodd" d="M20.37 10.0232L19.06 15.5732L24 12.6332L28.94 15.5732L27.63 10.0232L32 6.29324L26.25 5.80324L24 0.573242L21.75 5.80324L16 6.29324L20.37 10.0232Z" fill="#FF9017"/>
  <path fill-rule="evenodd" clip-rule="evenodd" d="M5.75 5.80324L0 6.29324L4.37 10.0232L3.06 15.5732L8 12.6332L12.94 15.5732L11.63 10.0232L16 6.29324L10.25 5.80324L8 0.573242L5.75 5.80324Z" fill="#FF9017"/>
  </svg>