<svg xmlns="http://www.w3.org/2000/svg" width="15" height="16" viewBox="0 0 15 16" fill="none">
  <path
    d="M6.11604 12.1333L7.22804 10.9333H7.3516C9.45204 10.9333 10.9965 10.0666 12.1703 8.26659C11.7996 7.73325 11.3672 7.26659 10.9347 6.86659L11.8614 5.99992C12.5409 6.59992 13.0969 7.39992 13.5912 8.26659C12.1703 10.9333 10.0698 12.1999 7.41337 12.1999C6.98093 12.2666 6.54848 12.1999 6.11604 12.1333ZM2.65648 10.2666C2.16226 9.73325 1.66804 9.06659 1.2356 8.26659C2.65648 5.59992 4.75693 4.33325 7.41337 4.33325H8.09293L6.85737 5.66659C5.00404 5.79992 3.58315 6.66659 2.53293 8.26659C2.78004 8.66659 3.08893 9.06659 3.39782 9.33325L2.65648 10.2666ZM10.9347 3.33325L11.7996 4.26659L4.0156 12.6666L3.15071 11.7333L10.9347 3.33325Z"
    fill="#5C5F62"
  />
</svg>
