<svg xmlns="http://www.w3.org/2000/svg" width="20" height="20" viewBox="0 0 20 20">
  <path
    d="M4.41396 11.5L5.70696 12.793C5.7998 12.8859 5.87345 12.9961 5.9237 13.1174C5.97394 13.2387 5.99981 13.3687 5.99981 13.5C5.99981 13.6313 5.97394 13.7613 5.9237 13.8826C5.87345 14.0039 5.7998 14.1142 5.70696 14.207C5.61411 14.2999 5.50389 14.3735 5.38258 14.4238C5.26128 14.474 5.13126 14.4999 4.99996 14.4999C4.86865 14.4999 4.73864 14.474 4.61733 14.4238C4.49602 14.3735 4.3858 14.2999 4.29296 14.207L1.29296 11.207C1.20001 11.1142 1.12627 11.004 1.07596 10.8827C1.02565 10.7614 0.999756 10.6313 0.999756 10.5C0.999756 10.3687 1.02565 10.2386 1.07596 10.1173C1.12627 9.996 1.20001 9.8858 1.29296 9.79301L4.29296 6.79301C4.3858 6.70017 4.49602 6.62652 4.61733 6.57627C4.73864 6.52602 4.86865 6.50016 4.99996 6.50016C5.13126 6.50016 5.26128 6.52602 5.38258 6.57627C5.50389 6.62652 5.61411 6.70017 5.70696 6.79301C5.7998 6.88586 5.87345 6.99608 5.9237 7.11739C5.97394 7.23869 5.99981 7.36871 5.99981 7.50001C5.99981 7.63131 5.97394 7.76133 5.9237 7.88264C5.87345 8.00394 5.7998 8.11417 5.70696 8.20701L4.41396 9.50001H11C11.2652 9.50001 11.5195 9.60537 11.7071 9.7929C11.8946 9.98044 12 10.2348 12 10.5C12 10.7652 11.8946 11.0196 11.7071 11.2071C11.5195 11.3947 11.2652 11.5 11 11.5H4.41396Z"
  />
  <path
    d="M19 17C19 17.8284 18.3284 18.5 17.5 18.5H2.28567C1.57559 18.5 0.999957 17.9244 0.999957 17.2143L0.999957 16.5C0.999957 15.9477 1.44767 15.5 1.99996 15.5C2.55224 15.5 2.99996 15.9477 2.99996 16.5H17V4.11801H9.99997H2.99996V4.50001C2.99996 5.0523 2.55224 5.50001 1.99996 5.50001C1.44767 5.50001 0.999957 5.0523 0.999957 4.50001V3C0.999957 2.44772 1.44767 2 1.99996 2H17.5C18.3284 2 19 2.67157 19 3.5V17Z"
  />
</svg>
