<svg xmlns="http://www.w3.org/2000/svg" width="11" height="18" viewBox="0 0 11 18">
  <path
    d="M10.0308 18H0.969189C0.434238 18 0 17.5834 0 17.0703V0.929723C0 0.416555 0.434257 0 0.969189 0H10.0308C10.5658 0 11 0.416573 11 0.929723V17.0703C11 17.5834 10.5657 18 10.0308 18ZM5.49736 17.0703C5.85748 17.0703 6.1435 16.7909 6.1435 16.4505C6.1435 16.11 5.85224 15.8306 5.49736 15.8306C5.14248 15.8306 4.85121 16.11 4.85121 16.4505C4.85121 16.7909 5.14248 17.0703 5.49736 17.0703ZM10.0308 1.85945H0.969189V14.8959H10.0255V1.85945H10.0308Z"
  />
</svg>
