<svg xmlns="http://www.w3.org/2000/svg" width="30" height="30" viewBox="0 0 30 30" fill="none">
  <path fill-rule="evenodd" clip-rule="evenodd" d="M6.5 8.5C6.5 7.94772 6.94772 7.5 7.5 7.5H23.1538C23.7061 7.5 24.1538 7.94772 24.1538 8.5C24.1538 9.05228 23.7061 9.5 23.1538 9.5H7.5C6.94772 9.5 6.5 9.05228 6.5 8.5ZM6.5 14.5C6.5 13.9477 6.94772 13.5 7.5 13.5H23.1538C23.7061 13.5 24.1538 13.9477 24.1538 14.5C24.1538 15.0523 23.7061 15.5 23.1538 15.5H7.5C6.94772 15.5 6.5 15.0523 6.5 14.5ZM7.5 19.5C6.94772 19.5 6.5 19.9477 6.5 20.5C6.5 21.0523 6.94772 21.5 7.5 21.5H23.1538C23.7061 21.5 24.1538 21.0523 24.1538 20.5C24.1538 19.9477 23.7061 19.5 23.1538 19.5H7.5Z" fill="black"/>
  </svg>