<svg xmlns="http://www.w3.org/2000/svg" width="17" height="17" viewBox="0 0 17 17" fill="none">
  <path
    d="M8.50005 2.65869C5.24058 2.65869 2.63232 5.26679 2.63232 8.52635C2.63232 11.7859 5.24056 14.394 8.50005 14.394C9.02247 14.394 9.478 13.9366 9.478 13.416C9.478 13.1544 9.4131 12.9586 9.21828 12.7638C9.08636 12.568 8.95657 12.3722 8.95657 12.1125C8.95657 11.5901 9.4131 11.1345 9.93453 11.1345H11.1082C12.9342 11.1345 14.3678 9.70005 14.3678 7.87408C14.3678 5.00519 11.7605 2.65869 8.50005 2.65869ZM4.91484 8.52635C4.39255 8.52635 3.937 8.06891 3.937 7.54841C3.937 7.02699 4.39253 6.57052 4.91484 6.57052C5.43641 6.57052 5.89278 7.02699 5.89278 7.54841C5.8928 8.06891 5.43642 8.52635 4.91484 8.52635ZM6.87074 5.91817C6.34833 5.91817 5.8928 5.46164 5.8928 4.94021C5.8928 4.4188 6.34833 3.96227 6.87074 3.96227C7.39217 3.96227 7.8487 4.4188 7.8487 4.94021C7.84872 5.46164 7.39219 5.91817 6.87074 5.91817ZM10.1303 5.91817C9.60877 5.91817 9.1524 5.46164 9.1524 4.94021C9.1524 4.4188 9.60877 3.96227 10.1303 3.96227C10.6518 3.96227 11.1082 4.4188 11.1082 4.94021C11.1082 5.46164 10.6518 5.91817 10.1303 5.91817ZM12.0861 8.52635C11.5647 8.52635 11.1082 8.06891 11.1082 7.54841C11.1082 7.02699 11.5647 6.57052 12.0861 6.57052C12.6077 6.57052 13.0641 7.02699 13.0641 7.54841C13.0641 8.06891 12.6077 8.52635 12.0861 8.52635Z"
    fill="#202223"
  />
</svg>
