<svg xmlns="http://www.w3.org/2000/svg" width="13" height="14" viewBox="0 0 13 14" fill="none">
  <g clip-path="url(#clip0_30_7946)">
    <path
      d="M11.8381 6.30003L10.3786 4.69587C10.1624 4.46253 9.83808 4.46253 9.62185 4.69587C9.40563 4.9292 9.40563 5.2792 9.62185 5.51253L10.3246 6.27087H7.21638V3.06253L7.9191 3.82087C8.13533 4.0542 8.48669 4.0542 8.67588 3.82087C8.8921 3.58753 8.8921 3.20837 8.67588 3.0042L7.18935 1.4292C6.91908 1.13753 6.4596 1.13753 6.1623 1.4292L4.67577 3.03337C4.45955 3.2667 4.45955 3.64587 4.67577 3.85003C4.78388 3.9667 4.91902 4.02503 5.05416 4.02503C5.1893 4.02503 5.32444 3.9667 5.43255 3.85003L6.13527 3.0917V6.27087H3.08113L3.78385 5.51253C4.00008 5.2792 4.00008 4.90003 3.78385 4.69587C3.56763 4.46253 3.21627 4.46253 3.02708 4.69587L1.56758 6.30003C1.2973 6.5917 1.2973 7.08753 1.56758 7.40837L3.0541 9.01253C3.16222 9.1292 3.29735 9.18753 3.43249 9.18753C3.56763 9.18753 3.70277 9.1292 3.81088 9.01253C4.0271 8.7792 4.0271 8.4292 3.81088 8.19587L3.10816 7.43753H6.1623V10.7334L5.45958 9.97503C5.24335 9.7417 4.89199 9.7417 4.7028 9.97503C4.48658 10.2084 4.48658 10.5875 4.7028 10.7917L6.18933 12.3959C6.32446 12.5417 6.51366 12.6292 6.70285 12.6292C6.89205 12.6292 7.08124 12.5417 7.21638 12.3959L8.70291 10.8209C8.91913 10.5875 8.91913 10.2084 8.70291 10.0042C8.48669 9.77087 8.13533 9.77087 7.94613 10.0042L7.24341 10.7625V7.43753H10.2705L9.5678 8.19587C9.35158 8.4292 9.35158 8.80837 9.5678 9.01253C9.67591 9.1292 9.81105 9.18753 9.94619 9.18753C10.0813 9.18753 10.2165 9.1292 10.3246 9.01253L11.8111 7.40837C12.1084 7.1167 12.1084 6.62087 11.8381 6.30003Z"
      fill="#5C5F62"
    />
  </g>
  <defs>
    <clipPath id="clip0_30_7946">
      <rect width="12.9733" height="14" fill="white" />
    </clipPath>
  </defs>
</svg>
