<svg xmlns="http://www.w3.org/2000/svg" width="90" height="22" viewBox="0 0 90 22" fill="none">
  <g clip-path="url(#clip0_708_10354)">
  <path d="M69.3063 4.92871H64.347C64.0134 4.92871 63.7243 5.17515 63.6576 5.5112L61.6561 18.3035C61.6116 18.5499 61.8118 18.7739 62.0564 18.7739H64.5916C64.8363 18.7739 65.0364 18.5947 65.0587 18.3707L65.6369 14.7413C65.6813 14.4053 65.9705 14.1589 66.3263 14.1589H67.883C71.1521 14.1589 73.0202 12.5682 73.5094 9.40936C73.7318 8.04276 73.5094 6.945 72.8867 6.18329C72.2196 5.35437 70.9742 4.92871 69.3063 4.92871ZM69.8845 9.58859C69.6176 11.3809 68.261 11.3809 66.949 11.3809H66.1928L66.7266 8.04276C66.7488 7.84113 66.9267 7.68431 67.1269 7.68431H67.4605C68.35 7.68431 69.1951 7.68431 69.6399 8.19959C69.9067 8.51323 69.9734 8.9613 69.8845 9.58859Z" fill="#009CDE"/>
  <path d="M34.0133 4.92871H29.0541C28.7205 4.92871 28.4314 5.17515 28.3646 5.5112L26.3632 18.3035C26.3187 18.5499 26.5188 18.7739 26.7635 18.7739H29.1208C29.4544 18.7739 29.7435 18.5275 29.8102 18.1914L30.3439 14.7413C30.3884 14.4053 30.6775 14.1589 31.0333 14.1589H32.59C35.8591 14.1589 37.7272 12.5682 38.2164 9.40936C38.4388 8.04276 38.2164 6.945 37.5938 6.18329C36.9266 5.35437 35.6812 4.92871 34.0133 4.92871ZM34.5915 9.58859C34.3246 11.3808 32.9681 11.3808 31.656 11.3808H30.8999L31.4336 8.04276C31.4558 7.84113 31.6338 7.68431 31.8339 7.68431H32.1675C33.057 7.68431 33.9021 7.68431 34.3469 8.19959C34.6138 8.51323 34.6805 8.9613 34.5915 9.58859ZM48.8021 9.52138H46.4226C46.2224 9.52138 46.0445 9.6782 46.0223 9.87983L45.9111 10.5519L45.7554 10.3055C45.2439 9.56618 44.1097 9.29735 42.9533 9.29735C40.3291 9.29735 38.1052 11.2912 37.6605 14.0916C37.4381 15.4806 37.7494 16.8248 38.55 17.7658C39.2839 18.6171 40.3069 18.9756 41.53 18.9756C43.6427 18.9756 44.7991 17.609 44.7991 17.609L44.6879 18.2811C44.6435 18.5275 44.8436 18.7515 45.0882 18.7515H47.2232C47.5567 18.7515 47.8458 18.5051 47.9126 18.169L49.2024 9.99185C49.2469 9.76781 49.069 9.52138 48.8021 9.52138ZM45.5108 14.1813C45.2884 15.5479 44.1987 16.4664 42.8421 16.4664C42.1527 16.4664 41.5967 16.2424 41.2409 15.8167C40.8851 15.391 40.7517 14.8085 40.8629 14.1364C41.0852 12.7923 42.1749 11.8289 43.5093 11.8289C44.1764 11.8289 44.7324 12.0529 45.0882 12.4786C45.4663 12.9267 45.622 13.5092 45.5108 14.1813Z" fill="#003087"/>
  <path d="M84.0953 9.5214H81.7158C81.5156 9.5214 81.3377 9.67822 81.3155 9.87985L81.2043 10.5519L81.0486 10.3055C80.5371 9.5662 79.4029 9.29736 78.2465 9.29736C75.6223 9.29736 73.3985 11.2913 72.9537 14.0917C72.7313 15.4807 73.0427 16.8249 73.8432 17.7658C74.5771 18.6171 75.6001 18.9756 76.8232 18.9756C78.9359 18.9756 80.0923 17.609 80.0923 17.609L79.9812 18.2811C79.9367 18.5275 80.1368 18.7515 80.3815 18.7515H82.5164C82.85 18.7515 83.1391 18.5051 83.2058 18.1691L84.4956 9.99186C84.5401 9.76783 84.3622 9.5214 84.0953 9.5214ZM80.804 14.1813C80.5816 15.5479 79.4919 16.4664 78.1353 16.4664C77.4459 16.4664 76.89 16.2424 76.5341 15.8167C76.1783 15.391 76.0449 14.8086 76.1561 14.1365C76.3785 12.7923 77.4682 11.8289 78.8025 11.8289C79.4697 11.8289 80.0256 12.053 80.3815 12.4786C80.7595 12.9267 80.9152 13.5092 80.804 14.1813Z" fill="#009CDE"/>
  <path d="M61.4339 9.52148H59.0543C58.8319 9.52148 58.6095 9.6335 58.4761 9.83513L55.1848 14.719L53.7837 10.0368C53.6948 9.74552 53.4279 9.54389 53.1166 9.54389H50.7815C50.4924 9.54389 50.2922 9.83513 50.3812 10.104L53.0054 17.8555L50.5369 21.3504C50.3367 21.6192 50.5369 22.0001 50.8704 22.0001H53.25C53.4724 22.0001 53.6948 21.8881 53.806 21.7089L61.723 10.1936C61.9676 9.90234 61.7675 9.52148 61.4339 9.52148Z" fill="#003087"/>
  <path d="M86.8971 5.2647L84.8734 18.281C84.8289 18.5274 85.0291 18.7515 85.2737 18.7515H87.3197C87.6533 18.7515 87.9424 18.505 88.0091 18.169L90.0106 5.37672C90.0551 5.13028 89.8549 4.90625 89.6103 4.90625H87.3197C87.0973 4.92865 86.9194 5.06307 86.8971 5.2647Z" fill="#009CDE"/>
  <path d="M16.6897 5.57841C16.9566 3.87576 16.6897 2.71079 15.7779 1.65784C14.7549 0.492872 12.9314 0 10.5963 0H3.81345C3.34643 0 2.92389 0.358452 2.85718 0.828921L0.0106115 18.8859C-0.0561049 19.2444 0.233 19.558 0.58882 19.558H4.76971L4.48061 21.3951C4.43613 21.7088 4.68076 21.9776 4.9921 21.9776H8.52807C8.95061 21.9776 9.30643 21.664 9.37315 21.2607L9.41762 21.0815L10.0848 16.8248L10.1293 16.6008C10.196 16.1752 10.5518 15.8839 10.9743 15.8839H11.5081C14.9328 15.8839 17.6015 14.4949 18.3799 10.4399C18.7134 8.73727 18.5355 7.32587 17.6682 6.34012C17.4014 6.04888 17.0678 5.78004 16.6897 5.57841Z" fill="#009CDE"/>
  <path d="M16.6897 5.57841C16.9566 3.87576 16.6897 2.71079 15.7779 1.65784C14.7549 0.492872 12.9314 0 10.5963 0H3.81345C3.34643 0 2.92389 0.358452 2.85718 0.828921L0.0106115 18.8859C-0.0561049 19.2444 0.232999 19.558 0.58882 19.558H4.76971L5.81494 12.8371L5.7927 13.0387C5.85942 12.5682 6.25971 12.2098 6.74897 12.2098H8.75046C12.6645 12.2098 15.7334 10.6191 16.623 5.98167L16.6897 5.57841Z" fill="#012169"/>
  <path d="M6.97135 5.60081C7.01583 5.30957 7.19374 5.08554 7.43837 4.95112C7.54956 4.90631 7.683 4.86151 7.79419 4.86151H13.1315C13.7542 4.86151 14.3546 4.90631 14.8884 4.99593C15.044 5.01833 15.1997 5.04073 15.3331 5.08554C15.4888 5.10794 15.6222 5.15275 15.7557 5.19756L15.9558 5.26477C16.2227 5.35438 16.4673 5.46639 16.6897 5.57841C16.9566 3.87576 16.6897 2.71079 15.7779 1.65784C14.7549 0.492872 12.9314 0 10.5963 0H3.81345C3.34643 0 2.92389 0.358452 2.85718 0.828921L0.0106115 18.8859C-0.0561049 19.2444 0.232999 19.558 0.58882 19.558H4.76971L5.81494 12.8371L6.97135 5.60081Z" fill="#003087"/>
  </g>
  <defs>
  <clipPath id="clip0_708_10354">
  <rect width="90" height="22" fill="white"/>
  </clipPath>
  </defs>
  </svg>