<svg xmlns="http://www.w3.org/2000/svg" width="18" height="18" viewBox="0 0 18 18" fill="none">
<path opacity="0.9" d="M15.1871 7.87503C15.1871 9.46177 14.6319 10.913 13.6238 11.9612C12.6833 12.9391 11.4078 13.5 10.1246 13.5C8.86719 13.5 8.0278 13.0881 7.49265 12.6571L6.73468 15.8788C6.71776 15.9507 6.68685 16.0186 6.64371 16.0786C6.60056 16.1385 6.54603 16.1894 6.48322 16.2283C6.35638 16.3068 6.20353 16.3318 6.05831 16.2976C5.91309 16.2634 5.78739 16.173 5.70886 16.0461C5.63033 15.9193 5.6054 15.7664 5.63956 15.6212L7.88956 6.05872C7.90586 5.98618 7.93638 5.9176 7.97935 5.85693C8.02232 5.79627 8.07689 5.74472 8.1399 5.70527C8.20291 5.66582 8.27312 5.63926 8.34646 5.62711C8.41981 5.61496 8.49483 5.61747 8.5672 5.6345C8.63956 5.65152 8.70784 5.68273 8.76807 5.7263C8.8283 5.76987 8.8793 5.82495 8.91812 5.88836C8.95693 5.95176 8.98279 6.02223 8.99421 6.09569C9.00562 6.16915 9.00236 6.24415 8.98461 6.31634L7.79682 11.3646C8.01444 11.6733 8.66884 12.375 10.1246 12.375C12.0601 12.375 14.0621 10.6917 14.0621 7.87503C14.0619 7.08428 13.8765 6.30456 13.5208 5.59836C13.165 4.89217 12.6487 4.27913 12.0134 3.80838C11.378 3.33763 10.6412 3.02226 9.86203 2.88755C9.08284 2.75284 8.28293 2.80253 7.5264 3.03264C6.76987 3.26275 6.07776 3.66688 5.50555 4.21264C4.93333 4.7584 4.49692 5.43061 4.23128 6.17541C3.96565 6.92021 3.87818 7.71688 3.97588 8.50157C4.07358 9.28626 4.35375 10.0372 4.79392 10.6941C4.8771 10.8179 4.90769 10.9697 4.87893 11.1161C4.85018 11.2625 4.76445 11.3915 4.6406 11.4747C4.51675 11.5579 4.36492 11.5885 4.21852 11.5597C4.07212 11.531 3.94314 11.4452 3.85995 11.3214C3.32161 10.5185 2.97885 9.60071 2.85915 8.64151C2.73945 7.6823 2.84614 6.70839 3.17068 5.79785C3.49521 4.88731 4.02855 4.06547 4.72796 3.39821C5.42736 2.73094 6.27336 2.23682 7.19815 1.95544C8.12294 1.67407 9.10079 1.61327 10.0533 1.77793C11.0058 1.94258 11.9065 2.32811 12.6832 2.9036C13.4599 3.47909 14.0909 4.22854 14.5257 5.09186C14.9605 5.95519 15.187 6.90838 15.1871 7.87503Z" fill="black"/>
</svg>