<svg xmlns="http://www.w3.org/2000/svg" width="48" height="49" viewBox="0 0 48 49" fill="none">
  <path
    d="M23.9685 3.67578C35.5663 3.67578 44.9685 13.078 44.9685 24.6758C44.9685 36.2736 35.5663 45.6758 23.9685 45.6758C12.3707 45.6758 2.96851 36.2736 2.96851 24.6758C2.96851 13.078 12.3707 3.67578 23.9685 3.67578ZM20.5813 16.1042C19.6119 16.1042 18.8258 16.8931 18.8258 17.8662V31.9138C18.8258 32.2559 18.9252 32.5906 19.1118 32.877C19.6419 33.6917 20.7294 33.9205 21.5413 33.3884L32.129 26.4467C32.3437 26.3061 32.5269 26.1219 32.6671 25.9067C33.2268 25.047 32.9858 23.8944 32.129 23.3328L21.5409 16.3911C21.2558 16.204 20.9223 16.1043 20.5813 16.1042Z"
    fill="white"
  />
</svg>
