<svg xmlns="http://www.w3.org/2000/svg" width="16" height="16" viewBox="0 0 16 16" fill="none">
  <path d="M8 3C5.23077 3 3 5.23077 3 8C3 10.7692 5.25641 13 8 13C10.7692 13 13 10.7692 13 8C13 5.25641 10.7692 3 8 3ZM10.7949 8.38461H8.38462V10.7949C8.38462 11 8.20513 11.1795 8 11.1795C7.79487 11.1795 7.61538 11 7.61538 10.7949V8.38461H5.20513C5 8.38461 4.82051 8.20513 4.82051 8C4.82051 7.79487 5 7.61538 5.20513 7.61538H7.61538V5.20513C7.61538 5 7.79487 4.82051 8 4.82051C8.20513 4.82051 8.38462 5 8.38462 5.20513V7.61538H10.7949C11 7.61538 11.1795 7.79487 11.1795 8C11.1795 8.20513 11.0256 8.38461 10.7949 8.38461Z" fill="#5C5F62"/>
</svg>