<svg xmlns="http://www.w3.org/2000/svg" width="17" height="17" viewBox="0 0 17 17">
  <g clip-path="url(#clip0_124_1139)">
    <path
      d="M8.59434 14.1195H9.20823C9.30268 14.1195 9.44434 14.0723 9.53879 14.0723C9.58601 14.0723 9.68045 14.0251 9.72768 14.0251C9.82212 13.9779 9.96379 13.9779 10.0582 13.9306C10.1055 13.9306 10.1527 13.8834 10.1999 13.8834C10.3416 13.8362 10.436 13.789 10.5777 13.7417C10.6249 13.7417 10.6249 13.6945 10.6721 13.6945C10.8138 13.6473 10.9555 13.5529 11.0971 13.5056C11.5693 13.2695 11.9471 12.939 12.3249 12.5612C12.4193 12.4667 12.561 12.3251 12.6555 12.1834C12.6555 12.1362 12.7027 12.1362 12.7027 12.089C13.4582 11.1445 13.8832 9.96397 13.8832 8.68897H12.6082C12.561 8.68897 12.561 8.68897 12.5138 8.64175V8.5473L14.7332 5.28897C14.7332 5.24175 14.7805 5.24175 14.8277 5.24175C14.8749 5.24175 14.8749 5.24175 14.9221 5.28897L16.9999 8.50008V8.59453C16.9999 8.64175 16.9527 8.64175 16.9055 8.64175H15.6305C15.6305 10.1529 15.1582 11.5695 14.3555 12.7501C14.3555 12.7501 14.3555 12.7973 14.3082 12.7973C14.2138 12.939 14.1193 13.0334 14.0249 13.1279C13.9777 13.1751 13.9777 13.2223 13.9305 13.2695C13.7888 13.4112 13.6471 13.6001 13.5055 13.7417L13.4582 13.789C12.986 14.2612 12.4193 14.6862 11.8527 15.0167C11.8527 15.0167 11.8055 15.0167 11.8055 15.064C11.6166 15.1584 11.4749 15.2529 11.286 15.3001C11.2388 15.3001 11.1916 15.3473 11.1443 15.3473C11.0027 15.3945 10.861 15.489 10.6721 15.5362C10.5777 15.5834 10.5305 15.5834 10.436 15.6306C10.2943 15.6779 10.1527 15.7251 10.011 15.7251C9.91656 15.7251 9.82212 15.7723 9.72768 15.7723C9.68045 15.7723 9.63323 15.7723 9.63323 15.8195C9.49156 15.8667 9.3499 15.8667 9.25545 15.8667H9.11379C8.87768 15.8667 8.64156 15.914 8.40545 15.914C6.94156 15.914 5.5249 15.4417 4.34434 14.5917C3.96656 14.3084 3.87212 13.789 4.15545 13.364C4.43879 12.9862 4.95823 12.8917 5.33601 13.1751C6.32767 13.789 7.46101 14.1667 8.59434 14.1195ZM2.64434 4.58064C2.64434 4.58064 2.64434 4.53341 2.69156 4.53341C2.78601 4.39175 2.88045 4.25008 3.02212 4.10841L3.06934 4.06119C3.77767 3.16397 4.72212 2.50286 5.71379 2.03064C5.76101 2.03064 5.76101 1.98341 5.80823 1.98341C5.9499 1.93619 6.13879 1.84175 6.32767 1.79453C6.3749 1.79453 6.46934 1.7473 6.51656 1.7473C6.65823 1.70008 6.7999 1.65286 6.94156 1.65286C7.03601 1.65286 7.13045 1.60564 7.17767 1.60564C7.2249 1.60564 7.27212 1.60564 7.31934 1.55841C7.41379 1.55841 7.55545 1.51119 7.6499 1.51119C7.74434 1.51119 7.79156 1.51119 7.88601 1.46397C8.02767 1.46397 8.21656 1.41675 8.40545 1.41675H8.4999C9.96379 1.41675 11.3805 1.88897 12.6082 2.73897C12.986 3.0223 13.0805 3.54175 12.7971 3.96675C12.5138 4.34453 11.9943 4.43897 11.6166 4.15564C10.6721 3.49453 9.58601 3.16397 8.45267 3.16397C8.31101 3.16397 8.12212 3.16397 7.98045 3.21119H7.83879C7.69712 3.21119 7.60267 3.25841 7.46101 3.25841C7.41379 3.25841 7.36656 3.30564 7.31934 3.30564C7.17767 3.35286 7.08323 3.35286 6.94156 3.40008C6.89434 3.40008 6.84712 3.4473 6.84712 3.4473L6.42212 3.58897H6.3749C5.57212 3.91953 4.86379 4.48619 4.34434 5.1473C3.58879 6.09175 3.11656 7.31953 3.11656 8.64175H4.39156C4.43879 8.64175 4.43879 8.64175 4.48601 8.68897V8.78341L2.36101 11.9945C2.36101 12.0417 2.31379 12.0417 2.26656 12.0417C2.21934 12.0417 2.21934 12.0417 2.17212 11.9945L0.0471191 8.78341V8.68897C0.0471191 8.64175 0.0943413 8.64175 0.141564 8.64175H1.41656C1.36934 7.13064 1.84156 5.71397 2.64434 4.58064Z"
    />
  </g>
  <defs>
    <clipPath id="clip0_124_1139">
      <rect width="17" height="17" fill="white" />
    </clipPath>
  </defs>
</svg>
