<svg xmlns="http://www.w3.org/2000/svg" width="12" height="12" viewBox="0 0 12 12" >
  <g clip-path="url(#clip0_34_11020)">
  <path d="M8.866 8.171C8.891 8.1885 8.9155 8.208 8.9375 8.231L11.7695 11.0625C11.96 11.253 11.963 11.5725 11.768 11.7675C11.7219 11.8141 11.667 11.8512 11.6066 11.8765C11.5461 11.9019 11.4812 11.915 11.4157 11.9152C11.3501 11.9154 11.2852 11.9026 11.2245 11.8776C11.1639 11.8526 11.1089 11.8159 11.0625 11.7695L8.2305 8.9375C8.2086 8.9156 8.18884 8.89166 8.1715 8.866C7.27815 9.60091 6.1568 10.0019 5 10C2.2385 10 0 7.7615 0 5C0 2.2385 2.2385 0 5 0C7.7615 0 10 2.2385 10 5C10 6.2035 9.575 7.308 8.866 8.171ZM5 9C6.06087 9 7.07828 8.57857 7.82843 7.82843C8.57857 7.07828 9 6.06087 9 5C9 3.93913 8.57857 2.92172 7.82843 2.17157C7.07828 1.42143 6.06087 1 5 1C3.93913 1 2.92172 1.42143 2.17157 2.17157C1.42143 2.92172 1 3.93913 1 5C1 6.06087 1.42143 7.07828 2.17157 7.82843C2.92172 8.57857 3.93913 9 5 9Z" />
  </g>
  <defs>
  <clipPath id="clip0_34_11020">
  <rect width="12" height="12" fill="white"/>
  </clipPath>
  </defs>
  </svg>