<svg xmlns="http://www.w3.org/2000/svg" width="15" height="16" viewBox="0 0 15 16" fill="none">
  <path
    d="M11.9817 7.20954L11.9427 6.94761L11.1972 6.68101C11.1321 6.46384 11.0509 6.25268 10.9545 6.04958L11.3055 5.29186L11.1625 5.07671C10.8731 4.64005 10.5221 4.25497 10.1223 3.93545L9.9229 3.7811L9.22075 4.15996C9.03247 4.05601 8.83681 3.96842 8.63563 3.89804L8.38857 3.10758L8.14585 3.07016C7.90382 3.02565 7.65887 3.00219 7.41336 3C7.16786 3.00227 6.92291 3.02573 6.68087 3.07016L6.43382 3.11225L6.18676 3.93545C5.98578 4.00642 5.79016 4.09399 5.60164 4.19738L4.89949 3.79514L4.70011 3.93545C4.29478 4.25085 3.93915 4.63462 3.64688 5.07203L3.50385 5.28718L3.85493 6.0449C3.77059 6.24927 3.70103 6.46038 3.64688 6.67633L2.87972 6.94294L2.84504 7.20954C2.80416 7.47078 2.78242 7.73508 2.78003 8C2.78224 8.26493 2.80398 8.52925 2.84504 8.79046L2.88405 9.05239L3.64688 9.32367C3.7119 9.54085 3.79307 9.75202 3.8896 9.9551L3.53853 10.7081L3.68156 10.9233C3.82364 11.1393 3.98163 11.3427 4.15399 11.5313C4.32907 11.7185 4.51746 11.8905 4.71745 12.0458L4.91682 12.2002L5.61898 11.8213C5.80711 11.9256 6.0028 12.0132 6.2041 12.0833L6.45116 12.8877L6.69387 12.9298C6.93592 12.9742 7.18086 12.9977 7.42637 13C7.67187 12.9976 7.9168 12.9741 8.15886 12.9298L8.40158 12.8877L8.64863 12.0833C8.84944 12.0118 9.04502 11.9242 9.23376 11.8213L9.93591 12.2002L10.1353 12.0458C10.3364 11.892 10.5249 11.7199 10.6987 11.5313C10.8667 11.3509 11.0217 11.1571 11.1625 10.9514L11.3055 10.7362L10.9545 9.97848C11.0511 9.77546 11.1323 9.56428 11.1972 9.34705L11.9427 9.08045L11.9817 8.81852C12.0227 8.55731 12.0445 8.29299 12.0467 8.02806C12.0485 7.75364 12.0268 7.47963 11.9817 7.20954ZM7.41336 9.90833C7.0638 9.9074 6.72232 9.79469 6.43209 9.58444C6.14185 9.37419 5.91586 9.07583 5.78268 8.72705C5.6495 8.37827 5.6151 7.99472 5.68382 7.62485C5.75255 7.25498 5.92131 6.91538 6.16879 6.64897C6.41628 6.38255 6.73138 6.20126 7.07429 6.12801C7.41721 6.05475 7.77255 6.09282 8.09543 6.23739C8.4183 6.38196 8.69423 6.62656 8.88835 6.94028C9.08247 7.254 9.18608 7.62277 9.18608 8C9.18493 8.50655 8.99766 8.99193 8.66533 9.34967C8.33301 9.70742 7.88277 9.90833 7.41336 9.90833Z"
    fill="#5C5F62"
  />
  <path
    d="M7.41335 6.87744C7.17253 6.877 6.93903 6.96673 6.75268 7.13134C6.56634 7.29594 6.43868 7.52522 6.3915 7.78005C6.34432 8.03489 6.38053 8.29949 6.49396 8.52873C6.60739 8.75797 6.79101 8.93764 7.0135 9.03709C7.23598 9.13653 7.48355 9.1496 7.71396 9.07405C7.94438 8.9985 8.14337 8.83903 8.27698 8.62282C8.4106 8.40662 8.47056 8.14709 8.44665 7.8885C8.42273 7.62991 8.31641 7.38829 8.14584 7.20485C8.04979 7.10084 7.93562 7.01836 7.8099 6.96217C7.68419 6.90598 7.54942 6.87719 7.41335 6.87744Z"
    fill="#5C5F62"
  />
</svg>
