<svg xmlns="http://www.w3.org/2000/svg" width="26" height="26" viewBox="0 0 26 26" fill="none">
  <path d="M8.86896 22.6891C8.86896 23.0756 9.02251 23.4463 9.29583 23.7197C9.56915 23.993 9.93985 24.1465 10.3264 24.1465C10.7129 24.1465 11.0836 23.993 11.3569 23.7197C11.6303 23.4463 11.7838 23.0756 11.7838 22.6891C11.7838 22.3026 11.6303 21.9319 11.3569 21.6586C11.0836 21.3852 10.7129 21.2317 10.3264 21.2317C9.93985 21.2317 9.56915 21.3852 9.29583 21.6586C9.02251 21.9319 8.86896 22.3026 8.86896 22.6891Z" fill="#242424"/>
  <path d="M16.5369 22.6891C16.5369 23.0756 16.6905 23.4463 16.9638 23.7197C17.2371 23.993 17.6078 24.1465 17.9943 24.1465C18.3809 24.1465 18.7516 23.993 19.0249 23.7197C19.2982 23.4463 19.4518 23.0756 19.4518 22.6891C19.4518 22.3026 19.2982 21.9319 19.0249 21.6586C18.7516 21.3852 18.3809 21.2317 17.9943 21.2317C17.6078 21.2317 17.2371 21.3852 16.9638 21.6586C16.6905 21.9319 16.5369 22.3026 16.5369 22.6891Z" fill="#242424"/>
  <path d="M23.824 5.19741C23.7656 5.18726 23.7072 5.17964 23.6463 5.17456H7.39628L7.13476 2.97065C6.94941 2.2394 6.29687 1.69351 5.5123 1.67065H1.79257C1.21874 1.67065 0.751556 2.1353 0.751556 2.71167C0.751556 3.2855 1.2162 3.75269 1.79257 3.75269H4.51953C4.83437 3.77554 5.14413 4.00913 5.19999 4.31128L5.20761 4.37476L5.26093 4.82417L6.89863 18.497C7.03066 19.3197 7.74413 19.9494 8.60488 19.9494H19.9469C20.5207 19.9494 20.9879 19.4847 20.9879 18.9083C20.9879 18.3345 20.5232 17.8673 19.9469 17.8673H9.47578C9.19394 17.8242 8.92734 17.616 8.85878 17.3519L8.67343 15.7955L20.4521 15.1505C20.8355 15.1251 21.1555 14.8916 21.3154 14.5716L21.3307 14.5412L24.7635 7.2769C25.0809 6.47202 24.7914 5.38276 23.824 5.19741Z" fill="#242424"/>
  </svg>