<?xml version="1.0" standalone="no"?><!DOCTYPE svg PUBLIC "-//W3C//DTD SVG 1.1//EN" "http://www.w3.org/Graphics/SVG/1.1/DTD/svg11.dtd"><svg t="1710574178343" class="icon" viewBox="0 0 1024 1024" version="1.1" xmlns="http://www.w3.org/2000/svg" p-id="3809" xmlns:xlink="http://www.w3.org/1999/xlink" width="200" height="200"><path d="M1005.056 229.888L792.064 16.896C783.36 8.192 772.096 3.584 759.808 3.584s-23.552 4.608-32.256 13.312l-117.76 117.76-503.296 503.296-88.064 88.064c-17.92 17.92-17.92 46.592 0 64.512L231.424 1003.52c8.704 8.704 20.48 13.312 32.256 13.312s23.04-4.608 32.256-13.312L1005.056 293.888c17.92-17.408 17.92-46.592 0-64z m-29.184 35.328L266.752 974.336c-1.536 1.536-4.608 1.536-6.144 0L47.616 761.344c-1.536-1.536-1.536-4.608 0-6.144l73.728-73.728 79.872 79.872c4.096 4.096 9.216 6.144 14.336 6.144s10.24-2.048 14.336-6.144c8.192-8.192 8.192-20.992 0-29.184l-79.872-79.872 56.832-56.832 77.824 77.824c4.096 4.096 9.216 6.144 14.336 6.144s10.24-2.048 14.336-6.144c8.192-8.192 8.192-20.992 0-29.184L235.52 566.272l53.248-53.248L424.96 648.704c4.096 4.096 9.216 6.144 14.336 6.144s10.24-2.048 14.336-6.144c8.192-8.192 8.192-20.992 0-29.184L318.464 484.352l54.784-54.784 79.872 79.872c4.096 4.096 9.216 6.144 14.336 6.144s10.24-2.048 14.336-6.144c8.192-8.192 8.192-20.992 0-29.184L401.92 400.384l56.32-56.32 79.872 79.872c4.096 4.096 9.216 6.144 14.336 6.144s10.24-2.048 14.336-6.144c8.192-8.192 8.192-20.992 0-29.184L487.424 315.392l52.736-52.736 133.12 133.12c4.096 4.096 9.216 6.144 14.336 6.144s10.24-2.048 14.336-6.144c8.192-8.192 8.192-20.992 0-29.184l-133.12-133.12L624.64 177.664 702.464 256c4.096 4.096 9.216 6.144 14.336 6.144s10.24-2.048 14.336-6.144c8.192-8.192 8.192-20.992 0-29.184l-77.824-77.824L756.736 46.08c1.024-1.024 2.56-1.536 3.072-1.536 1.024 0 2.048 0 3.072 1.536l212.992 212.992c1.024 1.024 1.536 2.56 1.536 3.072s0 2.048-1.536 3.072z" p-id="3810"></path></svg>