<svg xmlns="http://www.w3.org/2000/svg" width="19" height="20" viewBox="0 0 19 20">
  <path
    d="M14.6364 17.7143V2.28571H2.36364V17.7143H14.6364ZM14.6364 19H2.36364C2.00198 19 1.65513 18.8645 1.3994 18.6234C1.14367 18.3823 1 18.0553 1 17.7143V2.28571C1 1.94472 1.14367 1.6177 1.3994 1.37658C1.65513 1.13546 2.00198 1 2.36364 1H14.6364C14.998 1 15.3449 1.13546 15.6006 1.37658C15.8563 1.6177 16 1.94472 16 2.28571V17.7143C16 18.0553 15.8563 18.3823 15.6006 18.6234C15.3449 18.8645 14.998 19 14.6364 19Z"
  />
  <path
    d="M2.61905 15.2C2.45487 15.2 2.29741 15.1368 2.18131 15.0243C2.06522 14.9117 2 14.7591 2 14.6C2 14.4409 2.06522 14.2883 2.18131 14.1757C2.29741 14.0632 2.45487 14 2.61905 14H14.381C14.5451 14 14.7026 14.0632 14.8187 14.1757C14.9348 14.2883 15 14.4409 15 14.6C15 14.7591 14.9348 14.9117 14.8187 15.0243C14.7026 15.1368 14.5451 15.2 14.381 15.2H2.61905ZM8.19048 17C8.02629 17 7.86884 16.9368 7.75274 16.8243C7.63665 16.7117 7.57143 16.5591 7.57143 16.4C7.57143 16.2409 7.63665 16.0883 7.75274 15.9757C7.86884 15.8632 8.02629 15.8 8.19048 15.8H9.42857C9.59275 15.8 9.75021 15.8632 9.8663 15.9757C9.9824 16.0883 10.0476 16.2409 10.0476 16.4C10.0476 16.5591 9.9824 16.7117 9.8663 16.8243C9.75021 16.9368 9.59275 17 9.42857 17H8.19048Z"
  />
</svg>
