<svg xmlns="http://www.w3.org/2000/svg" width="18" height="18" viewBox="0 0 18 18" fill="none">
  <path d="M15.2715 6.16884C15.1978 11.7337 11.6391 15.5454 6.32692 15.7848C4.13624 15.8851 2.54916 15.1774 1.16797 14.3C2.78709 14.5584 4.79478 13.9112 5.86854 12.992C4.28147 12.8377 3.34181 12.0298 2.90214 10.7298C3.36075 10.8091 3.84389 10.788 4.27958 10.6958C2.84744 10.2164 1.82475 9.33122 1.77191 7.47647C2.17379 7.65944 2.59275 7.83144 3.14934 7.86535C2.07755 7.25571 1.28501 5.02713 2.19273 3.55347C3.78344 5.29702 5.69687 6.71981 8.83878 6.91228C8.04996 3.54026 12.5184 1.71171 14.3886 3.97805C15.1791 3.8251 15.8226 3.52517 16.4416 3.1987C16.1869 3.98178 15.6962 4.52902 15.0981 4.96681C15.7547 4.87817 16.3358 4.71774 16.8323 4.47243C16.5243 5.11214 15.8509 5.6858 15.2715 6.16884Z" fill="#2C2C2C"/>
</svg>