<svg xmlns="http://www.w3.org/2000/svg" width="12" height="12" viewBox="0 0 12 12" fill="none">
  <g clip-path="url(#clip0_17_3454)">
  <path d="M0.46566 0.0317993C2.04237 0.0317993 3.61909 0.0317993 5.19582 0.0317993C5.67682 0.079436 5.56089 0.926139 5.56089 1.47624C5.56089 2.46432 5.56089 3.11555 5.56089 4.09528C5.56089 4.6645 5.66808 5.36217 5.29104 5.52384C5.04551 5.62914 4.38653 5.5556 4.06882 5.5556C3.19656 5.5556 2.48753 5.5556 1.56089 5.5556C0.981144 5.5556 0.189543 5.69397 0.100586 5.19051C0.100586 3.59263 0.100586 1.99476 0.100586 0.396885C0.165402 0.218327 0.279438 0.0889751 0.46566 0.0317993ZM1.11646 1.11115C1.11646 2.24873 1.11646 3.38628 1.11646 4.52384C2.25403 4.52384 3.39157 4.52384 4.52914 4.52384C4.52914 3.3704 4.52914 2.21697 4.52914 1.06353C3.39687 1.06353 2.26459 1.06353 1.13233 1.06353C1.11384 1.0662 1.11509 1.08863 1.11646 1.11115ZM6.81486 0.0317993C8.39155 0.0317993 9.96829 0.0317993 11.545 0.0317993C11.7379 0.103389 11.8705 0.235366 11.9101 0.460366C11.9101 2.01591 11.9101 3.57148 11.9101 5.12702C11.8668 5.32094 11.7655 5.4866 11.5767 5.53972C11.2682 5.62653 10.7555 5.55558 10.3863 5.55558C9.51624 5.55558 8.80285 5.55558 7.9577 5.55558C7.59146 5.55558 7.0487 5.63274 6.75136 5.53972C6.33164 5.4084 6.44978 4.58906 6.44978 4.0159C6.44978 3.25458 6.44978 2.36589 6.44978 1.57147C6.44977 0.909721 6.30452 0.12426 6.81486 0.0317993ZM7.46563 1.11115C7.46563 2.24873 7.46563 3.38628 7.46563 4.52384C8.6032 4.52384 9.74076 4.52384 10.8783 4.52384C10.8783 3.3704 10.8783 2.21697 10.8783 1.06353C9.74607 1.06353 8.61379 1.06353 7.48152 1.06353C7.46302 1.0662 7.46427 1.08863 7.46563 1.11115ZM2.67201 2.11115C3.1473 2.02146 3.52107 2.3426 3.52915 2.77782C3.5398 3.35174 2.95362 3.66704 2.49741 3.42861C1.97548 3.15583 2.00983 2.23612 2.67201 2.11115ZM9.0212 2.11115C10.1407 1.90199 10.1193 3.67499 9.0212 3.4921C8.32239 3.37573 8.29983 2.24593 9.0212 2.11115ZM5.16407 12C3.60324 12 2.04239 12 0.481539 12C0.287148 11.9404 0.15584 11.8178 0.100598 11.6191C0.100598 10.0265 0.100598 8.43387 0.100598 6.84129C0.146828 6.70148 0.253562 6.53838 0.418047 6.4921C0.728758 6.40467 1.2363 6.47623 1.60852 6.47623C2.464 6.47623 3.23897 6.47623 4.03709 6.47623C4.396 6.47623 4.91835 6.39612 5.24342 6.4921C5.68321 6.62194 5.56089 7.42798 5.56089 8.00002C5.56089 8.87938 5.56089 9.62951 5.56089 10.5238C5.56089 11.1412 5.69384 11.9449 5.16407 12ZM1.11646 7.55559C1.11646 8.69316 1.11646 9.83071 1.11646 10.9683C2.25403 10.9683 3.39157 10.9683 4.52914 10.9683C4.52914 9.81482 4.52914 8.6614 4.52914 7.50796C3.39687 7.50796 2.26459 7.50796 1.13233 7.50796C1.11384 7.51063 1.11509 7.53305 1.11646 7.55559ZM11.9101 6.9048C11.9101 7.34923 11.9101 7.79369 11.9101 8.23812C11.873 8.68787 11.9048 9.20635 11.8942 9.68255C10.7672 9.68255 9.64025 9.68255 8.51325 9.68255C8.51325 9.42331 8.51325 9.16403 8.51325 8.90478C8.19579 8.86778 7.80958 8.89949 7.46564 8.88891C7.42861 9.89421 7.46036 10.9683 7.44978 12C7.24343 12 7.03708 12 6.83072 12C6.29845 11.8933 6.44977 11.0946 6.44977 10.4603C6.44977 9.57555 6.44977 8.84758 6.44977 8.00002C6.44977 7.6301 6.3749 7.07551 6.46565 6.77781C6.57391 6.42263 7.04343 6.47623 7.51326 6.47623C8.30753 6.47623 9.01517 6.47623 9.81482 6.47623C9.81482 7.17992 9.81482 7.88364 9.81482 8.58733C10.1693 8.58733 10.5238 8.58733 10.8783 8.58733C10.8889 7.8889 10.8571 7.14817 10.8942 6.47623C11.406 6.44594 11.88 6.45339 11.9101 6.9048ZM2.75137 8.53972C3.25887 8.48354 3.67839 8.97128 3.48152 9.50795C3.20863 10.2518 1.90387 9.97226 2.1482 9.03178C2.21574 8.77179 2.41082 8.5774 2.75137 8.53972ZM9.65611 12C9.27516 12 8.8942 12 8.51325 12C8.52384 11.5926 8.4921 11.1429 8.52913 10.7619C8.90479 10.7619 9.28045 10.7619 9.65611 10.7619C9.65611 11.1746 9.65611 11.5873 9.65611 12ZM11.9101 10.7619C11.9101 11.0318 11.9101 11.3016 11.9101 11.5714C11.8659 11.7972 11.734 11.935 11.5291 12C11.2593 12 10.9894 12 10.7196 12C10.7302 11.5926 10.6984 11.1429 10.7355 10.7619C11.127 10.7619 11.5185 10.7619 11.9101 10.7619Z" fill="white"/>
  </g>
  <defs>
  <clipPath id="clip0_17_3454">
  <rect width="12" height="12" fill="white"/>
  </clipPath>
  </defs>
  </svg>