<svg width="38" height="24" viewBox="0 0 38 24" fill="none" xmlns="http://www.w3.org/2000/svg">
<g clip-path="url(#clip0_148_6815)">
<path d="M35.7349 0.00705436L26.4786 0.00463867H26.4761C26.4688 0.00463867 26.462 0.00591009 26.455 0.00591009C25.1834 0.0448154 23.5995 1.06424 23.3111 2.32116L18.9337 21.6801C18.6452 22.9489 19.4298 23.9811 20.6923 24.0001H30.4165C31.6595 23.9387 32.8677 22.9309 33.1511 21.6882L37.5288 2.32917C37.8218 1.04771 37.0184 0.00705436 35.7349 0.00705436Z" fill="#01798A"/>
<path d="M18.9339 21.68L23.3112 2.321C23.5996 1.06408 25.1835 0.0446625 26.4551 0.00575723L22.7747 0.00346868L16.1439 0.00219727C14.8688 0.0282613 13.2644 1.0548 12.976 2.32113L8.59737 21.68C8.30784 22.9487 9.09374 23.981 10.3553 23.9999H20.6924C19.43 23.981 18.6453 22.9487 18.9339 21.68Z" fill="#024381"/>
<path d="M8.59737 21.68L12.976 2.3211C13.2644 1.05477 14.8688 0.0282254 16.1439 0.00216141L7.64953 0C6.36727 0 4.72322 1.03836 4.43013 2.3211L0.0514682 21.68C0.0248816 21.7982 0.00999812 21.914 0.0012207 22.0271V22.3862C0.0869595 23.311 0.793605 23.9845 1.80937 23.9999H10.3553C9.09373 23.9811 8.30784 22.9488 8.59737 21.68Z" fill="#DD0228"/>
<path d="M16.3231 14.1085H16.4839C16.6316 14.1085 16.7309 14.0588 16.7776 13.9608L17.1954 13.336H18.3139L18.0808 13.7469H19.4219L19.2517 14.3766H17.6557C17.4719 14.653 17.2456 14.7829 16.9737 14.7675H16.1423L16.3231 14.1085ZM16.1394 15.0108H19.0781L18.8907 15.6948H17.7088L17.5285 16.355H18.6785L18.4913 17.039H17.3413L17.0741 18.0145C17.008 18.1777 17.095 18.2509 17.3337 18.2344H18.2708L18.0972 18.8701H16.2978C15.9567 18.8701 15.8397 18.675 15.9467 18.2841L16.2883 17.0391H15.5532L15.74 16.3551H16.4751L16.6554 15.695H15.9527L16.1394 15.0108ZM20.8296 13.3312L20.7834 13.7317C20.7834 13.7317 21.3377 13.3158 21.841 13.3158H23.7012L22.9899 15.8896C22.9308 16.1838 22.6778 16.3302 22.2311 16.3302H20.1226L19.6288 18.1375C19.6001 18.2344 19.6405 18.284 19.7468 18.284H20.1618L20.0092 18.845H18.9546C18.5498 18.845 18.3813 18.7234 18.4481 18.4789L19.8437 13.3312H20.8296ZM22.405 14.0588H20.7445L20.5458 14.7534C20.5458 14.7534 20.8224 14.5539 21.2845 14.5468C21.7454 14.5395 22.2714 14.5468 22.2714 14.5468L22.405 14.0588ZM21.8033 15.6699C21.926 15.6866 21.9948 15.6381 22.003 15.5235L22.1046 15.1574H20.4418L20.3023 15.6699H21.8033ZM20.6818 16.5016H21.6403L21.6224 16.9162H21.8776C22.0065 16.9162 22.0705 16.8748 22.0705 16.7933L22.1461 16.5252H22.9428L22.8365 16.9162C22.7464 17.2422 22.5079 17.4123 22.1201 17.4289H21.6095L21.6071 18.1375C21.5978 18.251 21.7004 18.3089 21.9119 18.3089H22.3917L22.2369 18.8701H21.0858C20.7631 18.8853 20.6048 18.7317 20.6083 18.4058L20.6818 16.5016ZM9.0666 9.90215C8.93659 10.5389 8.63524 11.0279 8.16774 11.3751C7.70445 11.7165 7.10708 11.8877 6.3755 11.8877C5.68704 11.8877 5.1824 11.7129 4.86031 11.3621C4.63693 11.1129 4.52588 10.7963 4.52588 10.4136C4.52588 10.2553 4.54483 10.0852 4.58261 9.90228L5.36202 6.14613H6.53909L5.77049 9.85956C5.74851 9.95283 5.73783 10.0484 5.73869 10.1442C5.73742 10.3344 5.78474 10.4903 5.8804 10.612C6.01982 10.7928 6.24613 10.8824 6.56122 10.8824C6.92339 10.8824 7.22182 10.7939 7.45347 10.6154C7.68511 10.4382 7.83636 10.1867 7.90429 9.85943L8.67543 6.14575H9.84665L9.0666 9.90215ZM14.0102 8.42438H14.9321L14.2099 11.7767H13.2898L14.0102 8.42438ZM14.3004 7.20306H15.2305L15.0567 8.01677H14.1267L14.3004 7.20306ZM15.7481 11.5216C15.5069 11.2912 15.3852 10.9806 15.3841 10.586C15.3841 10.5187 15.3881 10.442 15.3972 10.3581C15.4061 10.273 15.4173 10.1904 15.4332 10.1136C15.5424 9.56904 15.7753 9.13676 16.1339 8.81776C16.492 8.49762 16.924 8.33704 17.43 8.33704C17.8441 8.33704 18.1727 8.45286 18.4133 8.68426C18.6537 8.91706 18.7742 9.2311 18.7742 9.63045C18.7742 9.69885 18.769 9.77806 18.76 9.86312C18.7497 9.94697 18.7369 10.0305 18.7216 10.1136C18.6148 10.6499 18.3826 11.0774 18.0239 11.3905C17.6652 11.7058 17.2343 11.8628 16.7321 11.8628C16.3161 11.8629 15.9887 11.7495 15.7481 11.5216ZM17.505 10.8577C17.6676 10.6818 17.7838 10.4148 17.8548 10.0593C17.8655 10.0037 17.8749 9.94589 17.8808 9.88804C17.8866 9.83133 17.8891 9.77819 17.8891 9.72974C17.8891 9.52301 17.8364 9.36243 17.7307 9.24902C17.6256 9.13447 17.4761 9.07776 17.2829 9.07776C17.0276 9.07776 16.8195 9.1674 16.6565 9.34705C16.4922 9.5267 16.3756 9.79827 16.3024 10.1597C16.2923 10.2153 16.2841 10.2709 16.2764 10.3251C16.2706 10.3807 16.2688 10.4326 16.2699 10.4799C16.2699 10.6855 16.3226 10.8438 16.4283 10.9559C16.5335 11.0682 16.6823 11.1236 16.878 11.1236C17.1346 11.1235 17.3424 11.0349 17.505 10.8577Z" fill="white"/>
<path d="M26.4762 0.00480638L22.7747 0.00366211L26.4551 0.0060778C26.4619 0.0060778 26.4689 0.00480638 26.4762 0.00480638Z" fill="#E02F41"/>
<path d="M22.7746 0.00355996L16.1947 0C16.1781 0 16.161 0.00114427 16.1438 0.00228855L22.7746 0.00355996Z" fill="#2E4F7D"/>
<path d="M24.7555 14.1367L24.9777 13.3548H26.1017L26.0533 13.6419C26.0533 13.6419 26.6275 13.3548 27.0412 13.3548H28.4309L28.2101 14.1367H27.9914L26.9431 17.8246H27.1618L26.9538 18.5569H26.7351L26.6442 18.8747H25.5556L25.6465 18.5569H23.4992L23.7084 17.8246H23.9235L24.9729 14.1367H24.7555ZM25.9682 14.1367L25.6822 15.1348C25.6822 15.1348 26.1717 14.947 26.5935 14.8939C26.6866 14.5455 26.8084 14.1367 26.8084 14.1367H25.9682ZM25.5498 15.6027L25.2627 16.6482C25.2627 16.6482 25.8051 16.3812 26.1773 16.3588C26.2848 15.9547 26.3924 15.6028 26.3924 15.6028H25.5498V15.6027ZM25.7601 17.8246L25.975 17.0662H25.1362L24.9198 17.8246H25.7601ZM28.4783 13.3064H29.535L29.5799 13.6961C29.5728 13.7952 29.6319 13.8427 29.7572 13.8427H29.944L29.755 14.5028H28.9784C28.682 14.518 28.5295 14.4048 28.5153 14.1603L28.4783 13.3064ZM28.1686 14.7227H31.5912L31.3903 15.4316H30.3006L30.1138 16.0905H31.2026L31.0003 16.7981H29.7879L29.5136 17.2128H30.1072L30.2442 18.0432C30.2605 18.1258 30.3337 18.166 30.4592 18.166H30.6433L30.4497 18.8498H29.7973C29.4592 18.8664 29.2845 18.753 29.2701 18.5085L29.1129 17.7501L28.5729 18.5569C28.4452 18.7849 28.2489 18.8912 27.9843 18.8747H26.988L27.1817 18.1907H27.4926C27.6204 18.1907 27.7266 18.1341 27.8222 18.0194L28.6675 16.7981H27.5779L27.7799 16.0905H28.9618L29.1497 15.4316H27.9667L28.1686 14.7227ZM10.1509 8.42326H10.9823L10.8872 8.90754L11.0065 8.76934C11.276 8.48111 11.6034 8.3382 11.9898 8.3382C12.3396 8.3382 12.5919 8.43979 12.7504 8.6441C12.9064 8.84842 12.949 9.1308 12.8751 9.49341L12.417 11.7779H11.5625L11.9761 9.70726C12.0187 9.49341 12.0069 9.33397 11.9412 9.23111C11.8763 9.12838 11.7522 9.07765 11.5731 9.07765C11.3533 9.07765 11.1683 9.14606 11.0176 9.28197C10.8663 9.41903 10.7664 9.60923 10.7173 9.85131L10.3362 11.7779H9.47998L10.1509 8.42326ZM19.6853 8.42326H20.5175L20.423 8.90754L20.5409 8.76934C20.8107 8.48111 21.1392 8.3382 21.5245 8.3382C21.8743 8.3382 22.127 8.43979 22.2843 8.6441C22.4394 8.84842 22.484 9.1308 22.4085 9.49341L21.9522 11.7779H21.0966L21.5104 9.70726C21.5529 9.49341 21.5409 9.33397 21.4759 9.23111C21.4085 9.12838 21.2868 9.07765 21.1084 9.07765C20.8885 9.07765 20.7043 9.14606 20.5517 9.28197C20.4005 9.41903 20.3 9.60923 20.2528 9.85131L19.8698 11.7779H19.0147L19.6853 8.42326ZM23.7984 6.34424H26.2141C26.6784 6.34424 27.0377 6.44938 27.2847 6.65599C27.5304 6.86526 27.6534 7.16519 27.6534 7.55615V7.56798C27.6534 7.64235 27.6486 7.72627 27.6415 7.81717C27.6292 7.90948 27.6134 8.0013 27.5943 8.09243C27.4878 8.60977 27.2409 9.02565 26.8593 9.34096C26.4761 9.65513 26.0225 9.81342 25.5002 9.81342H24.2047L23.8041 11.7778H22.6825L23.7984 6.34424ZM24.4021 8.86863H25.4764C25.7564 8.86863 25.9786 8.80354 26.1408 8.67487C26.3016 8.54493 26.4079 8.34646 26.4667 8.07718C26.4761 8.02747 26.4821 7.98258 26.4892 7.94126C26.4928 7.90236 26.4975 7.8632 26.4975 7.82556C26.4975 7.63295 26.429 7.4936 26.2918 7.40612C26.1548 7.31738 25.9397 7.27504 25.6419 7.27504H24.7295L24.4021 8.86863ZM32.6739 12.4264C32.3192 13.18 31.9813 13.6193 31.7829 13.8236C31.5842 14.0257 31.1906 14.4958 30.2428 14.4603L30.3246 13.8853C31.1222 13.6395 31.5534 12.5326 31.7994 12.0425L31.5062 8.43267L32.1232 8.4244H32.6408L32.6965 10.6888L33.6666 8.4244H34.6489L32.6739 12.4264ZM29.9274 8.69725L29.5373 8.96539C29.1296 8.64652 28.7574 8.44919 28.0389 8.7823C27.0603 9.23582 26.2424 12.7147 28.9371 11.5689L29.0906 11.7508L30.1508 11.778L30.847 8.61702L29.9274 8.69725ZM29.3244 10.4254C29.1542 10.9274 28.7739 11.2593 28.476 11.1648C28.1782 11.0726 28.0717 10.5884 28.2444 10.0851C28.4146 9.5819 28.7975 9.2512 29.0929 9.34567C29.3907 9.43785 29.4982 9.92213 29.3244 10.4254Z" fill="white"/>
</g>
<defs>
<clipPath id="clip0_148_6815">
<rect width="37.5904" height="24" fill="white"/>
</clipPath>
</defs>
</svg>
